<svg id="apple-logo" xmlns="http://www.w3.org/2000/svg" width="32.393" height="39.733" viewBox="0 0 32.393 39.733">
  <g id="Group_43" data-name="Group 43" transform="translate(0)">
    <path id="Path_121" data-name="Path 121" d="M19.068,0h.283a8.508,8.508,0,0,1-2.143,6.412,6.642,6.642,0,0,1-5.847,2.744,8.253,8.253,0,0,1,2.181-6.213A9.42,9.42,0,0,1,19.068,0Z" transform="translate(4.774)"/>
    <path id="Path_122" data-name="Path 122" d="M34.5,25.075v.079a23.117,23.117,0,0,1-3.308,6.377c-1.261,1.736-2.807,4.072-5.567,4.072-2.385,0-3.969-1.534-6.414-1.576-2.586-.042-4.008,1.282-6.372,1.616H12.03c-1.736-.251-3.137-1.626-4.158-2.865A25.1,25.1,0,0,1,2.1,18.339V16.561A11.644,11.644,0,0,1,7.188,7a8.586,8.586,0,0,1,5.765-1.335,14.5,14.5,0,0,1,2.825.81,7.8,7.8,0,0,0,2.823.846,6.776,6.776,0,0,0,1.98-.605c1.947-.7,3.856-1.509,6.372-1.131a8.84,8.84,0,0,1,6.5,3.873,8.336,8.336,0,0,0-4.234,8.27A8.538,8.538,0,0,0,34.5,25.075Z" transform="translate(-2.104 4.09)"/>
  </g>
</svg>
