<svg id="facebook-2" xmlns="http://www.w3.org/2000/svg" width="35.885" height="35.885" viewBox="0 0 35.885 35.885">
  <path id="Path_113" data-name="Path 113" d="M35.885,17.943A17.947,17.947,0,0,1,20.746,35.667V23.129h4.181l.8-5.187H20.746V14.577a2.593,2.593,0,0,1,2.924-2.8h2.262V7.359a27.6,27.6,0,0,0-4.017-.35c-4.1,0-6.777,2.484-6.777,6.981v3.953H10.583v5.187h4.556V35.667A17.944,17.944,0,1,1,35.885,17.943Z" fill="#1877f2"/>
  <path id="Path_114" data-name="Path 114" d="M165.344,116.12l.8-5.187h-4.976v-3.366a2.593,2.593,0,0,1,2.924-2.8h2.263V100.35a27.591,27.591,0,0,0-4.016-.35c-4.1,0-6.777,2.484-6.777,6.981v3.953H151v5.187h4.556v12.538a18.132,18.132,0,0,0,5.607,0V116.12Z" transform="translate(-140.417 -92.991)" fill="#fff"/>
</svg>
