<svg id="google-2" xmlns="http://www.w3.org/2000/svg" width="35.885" height="35.885" viewBox="0 0 35.885 35.885">
  <path id="Path_115" data-name="Path 115" d="M282.506,213.9H267.868a1.167,1.167,0,0,0-1.168,1.168v4.68a1.167,1.167,0,0,0,1.168,1.168h8.245a10.99,10.99,0,0,1-4.734,5.548l3.512,6.086a17.6,17.6,0,0,0,8.968-15.384,12.122,12.122,0,0,0-.2-2.3A1.183,1.183,0,0,0,282.506,213.9Z" transform="translate(-247.973 -199.077)" fill="#167ee6"/>
  <path id="Path_116" data-name="Path 116" d="M69.93,330.964a10.918,10.918,0,0,1-9.444-5.464L54.4,329a17.926,17.926,0,0,0,24.505,6.578v-.008l-3.512-6.086A10.827,10.827,0,0,1,69.93,330.964Z" transform="translate(-51.987 -302.101)" fill="#12b347"/>
  <path id="Path_117" data-name="Path 117" d="M265.468,383.494v-.008l-3.512-6.086a10.855,10.855,0,0,1-5.456,1.475V385.9A17.864,17.864,0,0,0,265.468,383.494Z" transform="translate(-238.557 -350.013)" fill="#0f993e"/>
  <path id="Path_118" data-name="Path 118" d="M30.023,146.86A10.855,10.855,0,0,1,31.5,141.4l-6.086-3.5a17.842,17.842,0,0,0,0,17.92l6.086-3.5A10.777,10.777,0,0,1,30.023,146.86Z" transform="translate(-23 -128.917)" fill="#ffd500"/>
  <path id="Path_119" data-name="Path 119" d="M69.93,28.023a10.874,10.874,0,0,1,6.931,2.49,1.167,1.167,0,0,0,1.568-.069l3.312-3.312a1.177,1.177,0,0,0-.069-1.721A17.883,17.883,0,0,0,54.4,29.983l6.086,3.5A10.918,10.918,0,0,1,69.93,28.023Z" transform="translate(-51.987 -21)" fill="#ff4b26"/>
  <path id="Path_120" data-name="Path 120" d="M263.431,30.513A1.167,1.167,0,0,0,265,30.444l3.312-3.312a1.177,1.177,0,0,0-.069-1.721A17.83,17.83,0,0,0,256.5,21v7.023a10.831,10.831,0,0,1,6.931,2.49Z" transform="translate(-238.557 -21)" fill="#d93f21"/>
</svg>
