<svg id="Group_105" data-name="Group 105" xmlns="http://www.w3.org/2000/svg" xmlns:xlink="http://www.w3.org/1999/xlink" width="145.108" height="46.543" viewBox="0 0 145.108 46.543">
  <defs>
    <clipPath id="clip-path">
      <rect id="Rectangle_46" data-name="Rectangle 46" width="145.108" height="46.543" fill="#fff"/>
    </clipPath>
  </defs>
  <g id="Group_104" data-name="Group 104" clip-path="url(#clip-path)">
    <path id="Path_188" data-name="Path 188" d="M137.388,46.543H7.718A7.727,7.727,0,0,1,0,38.825V7.718A7.727,7.727,0,0,1,7.718,0H137.388a7.727,7.727,0,0,1,7.718,7.718V38.825a7.727,7.727,0,0,1-7.718,7.718M7.718,1.642A6.083,6.083,0,0,0,1.642,7.718V38.825A6.083,6.083,0,0,0,7.718,44.9H137.388a6.083,6.083,0,0,0,6.076-6.076V7.718a6.083,6.083,0,0,0-6.076-6.076Z" transform="translate(0.001)" fill="#fff"/>
    <path id="Path_189" data-name="Path 189" d="M163.179,235.8c-.19.471-.369.957-.579,1.43a15.994,15.994,0,0,1-2.775,4.186,4.435,4.435,0,0,1-1.734,1.24,3.322,3.322,0,0,1-2.2.019c-.5-.155-1-.352-1.5-.522a5.651,5.651,0,0,0-2.14-.339,6.465,6.465,0,0,0-1.941.431,11.768,11.768,0,0,1-1.767.57,2.989,2.989,0,0,1-2.49-.608,10.053,10.053,0,0,1-1.926-2.043,16.05,16.05,0,0,1-1.972-3.308,16.5,16.5,0,0,1-1.262-4.3,10.792,10.792,0,0,1,.3-4.931,7.015,7.015,0,0,1,3.6-4.3,6.074,6.074,0,0,1,3.1-.662,7.556,7.556,0,0,1,2.05.5c.552.192,1.108.372,1.658.567a1.926,1.926,0,0,0,1.314-.088c.767-.263,1.533-.531,2.308-.771a6.039,6.039,0,0,1,2.721-.218,7.368,7.368,0,0,1,2.654.877,5.8,5.8,0,0,1,1.854,1.718,5.583,5.583,0,0,0-2.953,5.481,5.894,5.894,0,0,0,3.677,5.074" transform="translate(-130.953 -207.09)" fill="#fff"/>
    <path id="Path_190" data-name="Path 190" d="M307.361,132.1c0,.362.027.715,0,1.064a5.659,5.659,0,0,1-1.421,3.181,6.163,6.163,0,0,1-2.028,1.629,3.966,3.966,0,0,1-2.082.4,3.5,3.5,0,0,1,0-1.107,6.114,6.114,0,0,1,3.772-4.745,5.417,5.417,0,0,1,1.6-.421c.045,0,.09,0,.158,0" transform="translate(-280.777 -122.902)" fill="#fff"/>
    <path id="Path_191" data-name="Path 191" d="M616.068,313.343l5.779-15.047h2.145l6.158,15.047h-2.268l-1.755-4.557h-6.292l-1.652,4.557Zm4.342-6.179h5.1L623.941,303q-.719-1.9-1.068-3.12a19.158,19.158,0,0,1-.811,2.874Z" transform="translate(-573.186 -277.533)" fill="#fff"/>
    <path id="Path_192" data-name="Path 192" d="M837.846,369.655V354.577h1.683v1.416a4.15,4.15,0,0,1,1.345-1.247,3.694,3.694,0,0,1,1.817-.416,4.307,4.307,0,0,1,2.463.718,4.409,4.409,0,0,1,1.611,2.027,7.4,7.4,0,0,1,.544,2.869,7.287,7.287,0,0,1-.6,3.012,4.526,4.526,0,0,1-1.745,2.053,4.48,4.48,0,0,1-2.407.713,3.477,3.477,0,0,1-1.658-.39,3.773,3.773,0,0,1-1.206-.985v5.307Zm1.673-9.566a4.742,4.742,0,0,0,.852,3.11,2.612,2.612,0,0,0,2.063,1.006,2.671,2.671,0,0,0,2.109-1.042,4.943,4.943,0,0,0,.878-3.228,4.816,4.816,0,0,0-.857-3.12,2.58,2.58,0,0,0-2.048-1.037,2.661,2.661,0,0,0-2.089,1.1,4.936,4.936,0,0,0-.908,3.207" transform="translate(-779.527 -329.667)" fill="#fff"/>
    <path id="Path_193" data-name="Path 193" d="M1005.8,369.655V354.577h1.683v1.416a4.149,4.149,0,0,1,1.345-1.247,3.694,3.694,0,0,1,1.817-.416,4.307,4.307,0,0,1,2.463.718,4.409,4.409,0,0,1,1.611,2.027,7.4,7.4,0,0,1,.544,2.869,7.285,7.285,0,0,1-.6,3.012,4.526,4.526,0,0,1-1.745,2.053,4.48,4.48,0,0,1-2.407.713,3.476,3.476,0,0,1-1.658-.39,3.774,3.774,0,0,1-1.206-.985v5.307Zm1.673-9.566a4.741,4.741,0,0,0,.852,3.11,2.612,2.612,0,0,0,2.063,1.006,2.671,2.671,0,0,0,2.109-1.042,4.943,4.943,0,0,0,.877-3.228,4.816,4.816,0,0,0-.857-3.12,2.58,2.58,0,0,0-2.047-1.037,2.661,2.661,0,0,0-2.089,1.1,4.937,4.937,0,0,0-.908,3.207" transform="translate(-935.792 -329.667)" fill="#fff"/>
    <path id="Path_194" data-name="Path 194" d="M1251.321,305.078l1.878-.164a4.145,4.145,0,0,0,.621,1.853,3.39,3.39,0,0,0,1.514,1.17,5.734,5.734,0,0,0,2.31.447,5.532,5.532,0,0,0,2.012-.339,2.792,2.792,0,0,0,1.3-.929,2.156,2.156,0,0,0,.426-1.288,1.958,1.958,0,0,0-.411-1.237,3.041,3.041,0,0,0-1.355-.888,26.5,26.5,0,0,0-2.679-.734,13.69,13.69,0,0,1-2.9-.939,4.074,4.074,0,0,1-1.606-1.4,3.434,3.434,0,0,1-.529-1.873,3.824,3.824,0,0,1,.647-2.13,4,4,0,0,1,1.889-1.5,7.166,7.166,0,0,1,2.761-.513,7.542,7.542,0,0,1,2.951.539,4.256,4.256,0,0,1,1.966,1.586,4.553,4.553,0,0,1,.739,2.371l-1.909.144a3.08,3.08,0,0,0-1.042-2.155,4.055,4.055,0,0,0-2.623-.729,4.208,4.208,0,0,0-2.633.662,1.986,1.986,0,0,0-.826,1.6,1.711,1.711,0,0,0,.585,1.334,7.925,7.925,0,0,0,3,1.073,19.861,19.861,0,0,1,3.331.96,4.56,4.56,0,0,1,1.94,1.534,3.738,3.738,0,0,1,.626,2.14,4.093,4.093,0,0,1-.688,2.263,4.528,4.528,0,0,1-1.976,1.653,6.884,6.884,0,0,1-2.9.59,8.657,8.657,0,0,1-3.423-.6,4.793,4.793,0,0,1-2.166-1.791,5.076,5.076,0,0,1-.826-2.7" transform="translate(-1164.222 -274.102)" fill="#fff"/>
    <path id="Path_195" data-name="Path 195" d="M1449.541,316.218l.267,1.632a6.853,6.853,0,0,1-1.4.164,3.16,3.16,0,0,1-1.56-.318,1.782,1.782,0,0,1-.78-.837,6.613,6.613,0,0,1-.226-2.181v-6.271h-1.355V306.97h1.355v-2.7l1.837-1.109v3.808h1.858v1.437h-1.858v6.374a3.217,3.217,0,0,0,.1,1.016.77.77,0,0,0,.318.359,1.229,1.229,0,0,0,.631.133,6.013,6.013,0,0,0,.811-.072" transform="translate(-1343.946 -282.06)" fill="#fff"/>
    <path id="Path_196" data-name="Path 196" d="M1533.114,360.027a5.619,5.619,0,0,1,1.683-4.485,5.072,5.072,0,0,1,3.428-1.211,4.891,4.891,0,0,1,3.675,1.473,5.6,5.6,0,0,1,1.427,4.07,7.21,7.21,0,0,1-.631,3.31,4.468,4.468,0,0,1-1.837,1.873,5.349,5.349,0,0,1-2.633.667,4.9,4.9,0,0,1-3.7-1.468,5.863,5.863,0,0,1-1.411-4.229m1.9,0a4.643,4.643,0,0,0,.913,3.136,3.042,3.042,0,0,0,4.588-.005,4.753,4.753,0,0,0,.914-3.192,4.5,4.5,0,0,0-.919-3.064,3.046,3.046,0,0,0-4.583-.005,4.622,4.622,0,0,0-.913,3.13" transform="translate(-1426.4 -329.667)" fill="#fff"/>
    <path id="Path_197" data-name="Path 197" d="M1710.655,365.478v-10.9h1.663v1.652a4.512,4.512,0,0,1,1.175-1.529,2.051,2.051,0,0,1,1.185-.369,3.6,3.6,0,0,1,1.9.6l-.636,1.714a2.643,2.643,0,0,0-1.355-.4,1.76,1.76,0,0,0-1.088.364,1.973,1.973,0,0,0-.687,1.011,7.2,7.2,0,0,0-.308,2.155v5.707Z" transform="translate(-1591.583 -329.667)" fill="#fff"/>
    <path id="Path_198" data-name="Path 198" d="M1810.747,361.966l1.909.236a4.658,4.658,0,0,1-1.673,2.6,5.668,5.668,0,0,1-6.913-.549,5.755,5.755,0,0,1-1.4-4.131,6.023,6.023,0,0,1,1.417-4.27,4.8,4.8,0,0,1,3.675-1.519,4.66,4.66,0,0,1,3.572,1.488,5.914,5.914,0,0,1,1.385,4.188q0,.164-.01.493h-8.129a4.19,4.19,0,0,0,1.016,2.751,3.025,3.025,0,0,0,2.279.955,2.827,2.827,0,0,0,1.735-.534,3.542,3.542,0,0,0,1.139-1.7m-6.066-2.987h6.087a3.69,3.69,0,0,0-.7-2.063,2.831,2.831,0,0,0-2.289-1.068,2.935,2.935,0,0,0-2.14.852,3.371,3.371,0,0,0-.96,2.279" transform="translate(-1677.192 -329.667)" fill="#fff"/>
    <path id="Path_199" data-name="Path 199" d="M616.069,157.121V148.78h2.873a6.965,6.965,0,0,1,1.485.12,2.825,2.825,0,0,1,1.223.6,3.393,3.393,0,0,1,.987,1.425,5.594,5.594,0,0,1,.327,1.983,5.823,5.823,0,0,1-.222,1.684,4.086,4.086,0,0,1-.569,1.215,3.022,3.022,0,0,1-.76.757,3.1,3.1,0,0,1-1,.418,5.683,5.683,0,0,1-1.34.142Zm1.1-.984h1.781a4.322,4.322,0,0,0,1.294-.154,1.851,1.851,0,0,0,.748-.432,2.63,2.63,0,0,0,.612-1.055,5.159,5.159,0,0,0,.219-1.607,3.881,3.881,0,0,0-.43-2.011,2.161,2.161,0,0,0-1.044-.942,4.315,4.315,0,0,0-1.428-.171h-1.752Z" transform="translate(-573.187 -138.424)" fill="#fff"/>
    <path id="Path_200" data-name="Path 200" d="M729.6,183a3.114,3.114,0,0,1,.933-2.486,2.811,2.811,0,0,1,1.9-.671,2.71,2.71,0,0,1,2.037.816,3.106,3.106,0,0,1,.791,2.256,4,4,0,0,1-.35,1.835,2.476,2.476,0,0,1-1.018,1.038,2.964,2.964,0,0,1-1.459.37,2.717,2.717,0,0,1-2.051-.814A3.25,3.25,0,0,1,729.6,183m1.053,0a2.574,2.574,0,0,0,.506,1.738,1.686,1.686,0,0,0,2.543,0,2.635,2.635,0,0,0,.506-1.77,2.5,2.5,0,0,0-.509-1.7,1.689,1.689,0,0,0-2.54,0,2.562,2.562,0,0,0-.506,1.735" transform="translate(-678.82 -167.323)" fill="#fff"/>
    <path id="Path_201" data-name="Path 201" d="M819.488,187.845l-1.849-6.042H818.7l.962,3.488.358,1.3q.023-.1.313-1.246l.961-3.539h1.053l.9,3.5.3,1.155.347-1.166,1.036-3.493h1l-1.889,6.042h-1.064l-.962-3.619-.233-1.03-1.223,4.648Z" transform="translate(-760.726 -169.148)" fill="#fff"/>
    <path id="Path_202" data-name="Path 202" d="M949.076,186.02v-6.042H950v.859a2.172,2.172,0,0,1,1.923-1,2.522,2.522,0,0,1,1,.2,1.58,1.58,0,0,1,.686.515,1.975,1.975,0,0,1,.318.757,5.847,5.847,0,0,1,.057,1v3.715h-1.024v-3.676a2.761,2.761,0,0,0-.119-.936.984.984,0,0,0-.424-.5,1.348,1.348,0,0,0-.714-.185,1.659,1.659,0,0,0-1.129.415,2.049,2.049,0,0,0-.475,1.576v3.3Z" transform="translate(-883.015 -167.323)" fill="#fff"/>
    <rect id="Rectangle_45" data-name="Rectangle 45" width="1.024" height="8.341" transform="translate(72.519 10.356)" fill="#fff"/>
    <path id="Path_203" data-name="Path 203" d="M1073.893,183a3.115,3.115,0,0,1,.933-2.486,2.812,2.812,0,0,1,1.9-.671,2.711,2.711,0,0,1,2.037.816,3.106,3.106,0,0,1,.791,2.256,4,4,0,0,1-.35,1.835,2.478,2.478,0,0,1-1.019,1.038,2.964,2.964,0,0,1-1.459.37,2.716,2.716,0,0,1-2.051-.814,3.25,3.25,0,0,1-.782-2.344m1.053,0a2.573,2.573,0,0,0,.506,1.738,1.686,1.686,0,0,0,2.543,0,2.634,2.634,0,0,0,.506-1.77,2.5,2.5,0,0,0-.509-1.7,1.688,1.688,0,0,0-2.54,0,2.562,2.562,0,0,0-.506,1.735" transform="translate(-999.143 -167.323)" fill="#fff"/>
    <path id="Path_204" data-name="Path 204" d="M1171.775,185.276a3.814,3.814,0,0,1-1.1.683,3.164,3.164,0,0,1-1.129.2,2.2,2.2,0,0,1-1.531-.486,1.605,1.605,0,0,1-.535-1.243,1.655,1.655,0,0,1,.2-.811,1.673,1.673,0,0,1,.529-.589,2.49,2.49,0,0,1,.737-.336,7.316,7.316,0,0,1,.91-.154,9.363,9.363,0,0,0,1.826-.353q.006-.211.006-.267a1.131,1.131,0,0,0-.29-.882,1.714,1.714,0,0,0-1.167-.347,1.809,1.809,0,0,0-1.067.253,1.547,1.547,0,0,0-.509.9l-1-.137a2.484,2.484,0,0,1,.45-1.038,1.971,1.971,0,0,1,.9-.609,4.038,4.038,0,0,1,1.371-.213,3.629,3.629,0,0,1,1.257.182,1.658,1.658,0,0,1,.711.458,1.613,1.613,0,0,1,.319.7,5.791,5.791,0,0,1,.051.944v1.365a14.468,14.468,0,0,0,.066,1.806,2.274,2.274,0,0,0,.259.725h-1.07a2.17,2.17,0,0,1-.2-.745m-.085-2.287a7.509,7.509,0,0,1-1.673.387,3.869,3.869,0,0,0-.893.2.891.891,0,0,0-.4.333.906.906,0,0,0,.168,1.169,1.334,1.334,0,0,0,.908.273,2.112,2.112,0,0,0,1.052-.259,1.594,1.594,0,0,0,.677-.708,2.472,2.472,0,0,0,.165-1.024Z" transform="translate(-1086.221 -167.324)" fill="#fff"/>
    <path id="Path_205" data-name="Path 205" d="M1264.55,157.121v-.762a1.879,1.879,0,0,1-1.69.9,2.369,2.369,0,0,1-1.328-.4,2.619,2.619,0,0,1-.939-1.112,3.844,3.844,0,0,1-.333-1.641,4.3,4.3,0,0,1,.3-1.641,2.379,2.379,0,0,1,.9-1.129,2.419,2.419,0,0,1,1.349-.393,2.015,2.015,0,0,1,1.667.831V148.78h1.019v8.341Zm-3.237-3.015a2.624,2.624,0,0,0,.49,1.735,1.475,1.475,0,0,0,1.155.575,1.448,1.448,0,0,0,1.141-.549,2.531,2.531,0,0,0,.469-1.676,2.843,2.843,0,0,0-.478-1.821,1.47,1.47,0,0,0-1.178-.58,1.419,1.419,0,0,0-1.141.558,2.751,2.751,0,0,0-.458,1.758" transform="translate(-1172.538 -138.424)" fill="#fff"/>
    <path id="Path_206" data-name="Path 206" d="M1399.708,183a3.114,3.114,0,0,1,.933-2.486,2.811,2.811,0,0,1,1.9-.671,2.711,2.711,0,0,1,2.037.816,3.107,3.107,0,0,1,.791,2.256,4,4,0,0,1-.35,1.835,2.476,2.476,0,0,1-1.018,1.038,2.964,2.964,0,0,1-1.459.37,2.716,2.716,0,0,1-2.051-.814,3.25,3.25,0,0,1-.782-2.344m1.053,0a2.574,2.574,0,0,0,.506,1.738,1.686,1.686,0,0,0,2.543,0,2.634,2.634,0,0,0,.506-1.77,2.5,2.5,0,0,0-.509-1.7,1.688,1.688,0,0,0-2.54,0,2.562,2.562,0,0,0-.506,1.735" transform="translate(-1302.28 -167.323)" fill="#fff"/>
    <path id="Path_207" data-name="Path 207" d="M1498.287,186.02v-6.042h.922v.859a2.172,2.172,0,0,1,1.923-1,2.521,2.521,0,0,1,1,.2,1.578,1.578,0,0,1,.686.515,1.976,1.976,0,0,1,.319.757,5.861,5.861,0,0,1,.057,1v3.715h-1.024v-3.676a2.757,2.757,0,0,0-.12-.936.983.983,0,0,0-.424-.5,1.348,1.348,0,0,0-.714-.185,1.66,1.66,0,0,0-1.129.415,2.049,2.049,0,0,0-.475,1.576v3.3Z" transform="translate(-1393.997 -167.323)" fill="#fff"/>
    <path id="Path_208" data-name="Path 208" d="M1632.606,158.715l.148.9a3.8,3.8,0,0,1-.774.091,1.752,1.752,0,0,1-.865-.176.987.987,0,0,1-.432-.464,3.668,3.668,0,0,1-.125-1.209v-3.476h-.751v-.8h.751v-1.5l1.019-.614v2.111h1.03v.8h-1.03v3.533a1.778,1.778,0,0,0,.054.563.425.425,0,0,0,.176.2.68.68,0,0,0,.35.074,3.325,3.325,0,0,0,.45-.04" transform="translate(-1516.363 -140.934)" fill="#fff"/>
    <path id="Path_209" data-name="Path 209" d="M1684.409,157.121V148.78h1.024v2.993a2.288,2.288,0,0,1,1.809-.831,2.44,2.44,0,0,1,1.166.265,1.555,1.555,0,0,1,.708.731,3.373,3.373,0,0,1,.213,1.354v3.829h-1.024v-3.829a1.582,1.582,0,0,0-.333-1.118,1.237,1.237,0,0,0-.941-.35,1.661,1.661,0,0,0-.856.236,1.334,1.334,0,0,0-.572.64,2.943,2.943,0,0,0-.171,1.115v3.306Z" transform="translate(-1567.164 -138.424)" fill="#fff"/>
    <path id="Path_210" data-name="Path 210" d="M1777.084,184.075l1.058.131a2.582,2.582,0,0,1-.927,1.439,3.142,3.142,0,0,1-3.832-.3,3.191,3.191,0,0,1-.777-2.29,3.34,3.34,0,0,1,.785-2.367,2.658,2.658,0,0,1,2.037-.842,2.584,2.584,0,0,1,1.98.825,3.278,3.278,0,0,1,.768,2.321q0,.091-.006.273h-4.506a2.32,2.32,0,0,0,.563,1.525,1.677,1.677,0,0,0,1.263.529,1.566,1.566,0,0,0,.961-.3,1.963,1.963,0,0,0,.632-.944m-3.363-1.656h3.374a2.046,2.046,0,0,0-.387-1.144,1.57,1.57,0,0,0-1.269-.592,1.627,1.627,0,0,0-1.186.472,1.869,1.869,0,0,0-.532,1.263" transform="translate(-1649.222 -167.324)" fill="#fff"/>
  </g>
</svg>
