<svg xmlns="http://www.w3.org/2000/svg" width="64.851" height="38.004" viewBox="0 0 64.851 38.004">
  <g id="Group_684" data-name="Group 684" transform="translate(-616.444 -1145.17)">
    <path id="Path_507" data-name="Path 507" d="M49.9,59.823l-15.2-32.8h0l0-.006c0-.008-.008-.016-.012-.024s-.015-.03-.023-.045l-.022-.035c-.006-.011-.013-.022-.02-.032s-.019-.026-.029-.039l-.018-.024c-.011-.014-.022-.026-.034-.039l-.019-.02-.037-.036-.02-.019-.039-.032-.023-.018c-.013-.01-.027-.019-.04-.028l-.026-.017-.043-.024-.027-.014-.047-.022-.024-.011-.058-.021-.016-.006c-.024-.007-.049-.025-.074-.031,0,0,0-.012,0-.012h0c-.051,0-.1-.007-.158-.01,0,0,0,.005,0,.005-.019,0-.038,0-.057,0H33.8l-.034,0-.048,0-.023,0-.057.01h0l-.022.006-.052.014-.035.012-.04.014-.04.017-.033.015-.04.022-.029.017-.037.025-.029.02-.033.026-.03.024-.029.027-.029.029-.025.027-.028.032-.023.03-.025.033-.023.036c-.006.01-.013.021-.019.032s-.016.029-.023.044l-.013.024L17.592,59.819a.95.95,0,0,0,.86,1.354H49.041a.95.95,0,0,0,.861-1.35Zm0,0" transform="translate(601.159 1122.001)" fill="#702d22"/>
    <path id="Path_508" data-name="Path 508" d="M359.95,5.82a.95.95,0,0,1-.95-.95V1.45a.95.95,0,0,1,1.9,0V4.87A.95.95,0,0,1,359.95,5.82Zm0,0" transform="translate(302.916 1144.67)" fill="#594235"/>
    <path id="Path_509" data-name="Path 509" d="M139.95,5.82a.95.95,0,0,1-.95-.95V1.45a.95.95,0,0,1,1.9,0V4.87A.95.95,0,0,1,139.95,5.82Zm0,0" transform="translate(495.05 1144.67)" fill="#594235"/>
    <path id="Path_510" data-name="Path 510" d="M34.046,26.522a.95.95,0,0,0-1.067.523L17.59,59.851a.95.95,0,0,0,.86,1.354H33.84a.95.95,0,0,0,.95-.95V27.449A.95.95,0,0,0,34.046,26.522Zm0,0" transform="translate(601.16 1121.964)" fill="#f26944"/>
    <path id="Path_511" data-name="Path 511" d="M154.539,68.778c-3.355-4.337-6.112-4.555-9.471-3.5a.95.95,0,0,1-1.222-.755L139.168,35.6a1,1,0,0,0,.066.2l12.3,18.044,2.9,14.762A.965.965,0,0,0,154.539,68.778Zm0,0" transform="translate(494.903 1114.014)" fill="#d36e00"/>
    <path id="Path_512" data-name="Path 512" d="M183.878,59.857l-15.2-32.806a.949.949,0,0,0-.861-.551H139.951l-.061,0a.225.225,0,0,0-.041,0,.616.616,0,0,0-.107.018.544.544,0,0,0-.056.014l-.014,0c-.028.009-.056.019-.084.031a.522.522,0,0,0-.061.028.577.577,0,0,0-.062.034.858.858,0,0,0-.17.128l-.03.03a.992.992,0,0,0-.1.118l-.019.028a.052.052,0,0,0-.006.011.8.8,0,0,0-.073.147.183.183,0,0,0-.017.042.848.848,0,0,0-.04.16.4.4,0,0,0-.006.048c0,.013,0,.024,0,.037a.972.972,0,0,0,0,.152c0,.023,0,.045.009.067l.008.051a1,1,0,0,0,.066.2l15.2,32.806a.939.939,0,0,0,.8.549l.066,0h27.866a.949.949,0,0,0,.861-1.349Zm0,0" transform="translate(495.049 1121.963)" fill="#dd9300"/>
    <path id="Path_513" data-name="Path 513" d="M364.231,60.761a.954.954,0,0,1-.8.438h-2.649a.949.949,0,0,0,.861-1.349l-15.2-32.805a.946.946,0,0,0-.861-.552h2.649a.946.946,0,0,1,.861.552l15.2,32.805A.947.947,0,0,1,364.231,60.761Zm0,0" transform="translate(314.634 1121.97)" fill="#d68003"/>
    <path id="Path_514" data-name="Path 514" d="M213.43,74.659l-8.106-17.606a.95.95,0,0,0-.863-.553H184.448a.95.95,0,0,0-.86,1.352l8.233,17.606a.949.949,0,0,0,.86.548h19.886a.95.95,0,0,0,.863-1.347Zm0,0" transform="translate(456.188 1095.763)" fill="#ffb127"/>
    <path id="Path_515" data-name="Path 515" d="M246.035,90.762l-1.9-3.768a.922.922,0,0,0-.85-.493H231.95a.91.91,0,0,0-.855,1.316l1.837,3.823a.972.972,0,0,0,.855.561h11.4a.981.981,0,0,0,.808-.482A1.011,1.011,0,0,0,246.035,90.762Zm0,0" transform="translate(414.704 1069.563)" fill="#efd6a3"/>
    <g id="Group_495" data-name="Group 495" transform="translate(616.444 1179.052)">
      <path id="Path_516" data-name="Path 516" d="M3.167,272.117a.947.947,0,0,1-.672-.278L.279,269.623a.95.95,0,1,1,1.344-1.344L3.839,270.5a.95.95,0,0,1-.672,1.622Zm0,0" transform="translate(-0.001 -268.001)" fill="#594235"/>
      <path id="Path_517" data-name="Path 517" d="M480.448,272.117a.95.95,0,0,1-.672-1.622l2.217-2.217a.95.95,0,1,1,1.344,1.344l-2.217,2.217A.949.949,0,0,1,480.448,272.117Zm0,0" transform="translate(-418.763 -268.001)" fill="#594235"/>
      <path id="Path_518" data-name="Path 518" d="M259.616,272.117a.95.95,0,0,1-.672-1.622l2.217-2.217a.95.95,0,1,1,1.343,1.344l-2.217,2.217A.948.948,0,0,1,259.616,272.117Zm0,0" transform="translate(-225.903 -268.001)" fill="#594235"/>
    </g>
  </g>
</svg>
