<svg id="Group_572" data-name="Group 572" xmlns="http://www.w3.org/2000/svg" width="23.89" height="23.89" viewBox="0 0 23.89 23.89">
  <path id="Path_569" data-name="Path 569" d="M23.693,8.136,18.8,3.209,18.273,3H6.747L6,3.747v8.212H7.493V4.493h8.959V9.719l.747.747h5.226v1.493h1.493V8.674Zm-5.749.836V4.493l4.479,4.479Zm-11.2,4.479L6,14.2v8.959l.747.747H23.171l.747-.747V14.2l-.747-.747Zm15.678,7.466v1.493H7.493V14.945H22.424ZM10.479,19.424H10v1.493H8.986V16.438h1.583c1.12,0,1.687.538,1.687,1.493a1.4,1.4,0,0,1-.478,1.075A1.975,1.975,0,0,1,10.479,19.424Zm-.09-2.165H10v1.389h.388c.538,0,.806-.239.806-.7S10.927,17.259,10.39,17.259Zm6.062,3.031a2.19,2.19,0,0,0,.657-1.672c0-1.493-.791-2.18-2.389-2.18H13.137v4.479H14.72A2.387,2.387,0,0,0,16.452,20.29ZM14.137,20.1V17.259h.493a1.4,1.4,0,0,1,1.045.373,1.38,1.38,0,0,1,.373,1,1.492,1.492,0,0,1-.373,1.075,1.406,1.406,0,0,1-1.03.388Zm6.644-.911H19.334v1.732H18.318V16.438h2.6v.821H19.334v1.1h1.448Z" transform="translate(-3.014 -1.507)" fill="#7600ff" fill-rule="evenodd"/>
  <path id="Path_570" data-name="Path 570" d="M0,0H23.89V23.89H0Z" fill="none"/>
</svg>
