<svg id="Group_620" data-name="Group 620" xmlns="http://www.w3.org/2000/svg" width="14.25" height="14.25" viewBox="0 0 14.25 14.25">
  <path id="Path_575" data-name="Path 575" d="M13.125,6a7.125,7.125,0,1,0,7.125,7.125A7.126,7.126,0,0,0,13.125,6Zm.728,11.087a.248.248,0,0,1-.249.249h-.958a.248.248,0,0,1-.249-.249v-4.6a.248.248,0,0,1,.249-.249H13.6a.248.248,0,0,1,.249.249Zm-.732-5.874a.868.868,0,0,1-.859-.871.863.863,0,0,1,1.726,0A.87.87,0,0,1,13.121,11.213Z" transform="translate(-6 -6)" fill="#231f20"/>
</svg>
