<svg id="Group_107" data-name="Group 107" xmlns="http://www.w3.org/2000/svg" width="145.108" height="46.544" viewBox="0 0 145.108 46.544">
  <g id="Group_674" data-name="Group 674">
    <path id="Path_212" data-name="Path 212" d="M137.389,46.544H7.718A7.727,7.727,0,0,1,0,38.826V7.718A7.727,7.727,0,0,1,7.718,0H137.389a7.727,7.727,0,0,1,7.718,7.718V38.826a7.727,7.727,0,0,1-7.718,7.718M7.718,1.642A6.083,6.083,0,0,0,1.643,7.718V38.826A6.083,6.083,0,0,0,7.718,44.9H137.389a6.083,6.083,0,0,0,6.076-6.076V7.718a6.083,6.083,0,0,0-6.076-6.076Z" fill="#fff"/>
    <path id="Path_213" data-name="Path 213" d="M615.608,335.009v-2h5.163v4.726a6.5,6.5,0,0,1-2.181,1.283,7.938,7.938,0,0,1-2.893.554,6.494,6.494,0,0,1-3.245-.781,4.966,4.966,0,0,1-2.08-2.234,7.219,7.219,0,0,1-.7-3.16,6.829,6.829,0,0,1,.777-3.294,5.232,5.232,0,0,1,2.274-2.209,6.137,6.137,0,0,1,2.841-.591,5.666,5.666,0,0,1,3.452.927,4.184,4.184,0,0,1,1.6,2.561l-2.379.445a2.513,2.513,0,0,0-.943-1.38,2.85,2.85,0,0,0-1.728-.506,3.246,3.246,0,0,0-2.5,1,4.194,4.194,0,0,0-.927,2.954,4.646,4.646,0,0,0,.939,3.168,3.135,3.135,0,0,0,2.46,1.056,4.123,4.123,0,0,0,1.509-.3,5.171,5.171,0,0,0,1.3-.716v-1.505Z" transform="translate(-567.239 -304.522)" fill="#fff"/>
    <path id="Path_214" data-name="Path 214" d="M793.036,378.763a4.651,4.651,0,0,1,.558-2.193,3.833,3.833,0,0,1,1.582-1.619,4.7,4.7,0,0,1,2.286-.558,4.291,4.291,0,0,1,3.2,1.267,4.376,4.376,0,0,1,1.246,3.2,4.428,4.428,0,0,1-1.259,3.233,4.254,4.254,0,0,1-3.168,1.283,4.992,4.992,0,0,1-2.254-.534,3.665,3.665,0,0,1-1.631-1.566,5.219,5.219,0,0,1-.558-2.513m2.331.121a2.848,2.848,0,0,0,.607,1.959,1.984,1.984,0,0,0,2.99,0,2.887,2.887,0,0,0,.6-1.975,2.834,2.834,0,0,0-.6-1.942,1.984,1.984,0,0,0-2.99,0,2.848,2.848,0,0,0-.607,1.959" transform="translate(-737.836 -348.333)" fill="#fff"/>
    <path id="Path_215" data-name="Path 215" d="M938.492,378.763a4.648,4.648,0,0,1,.559-2.193,3.832,3.832,0,0,1,1.582-1.619,4.7,4.7,0,0,1,2.286-.558,4.291,4.291,0,0,1,3.2,1.267,4.376,4.376,0,0,1,1.246,3.2,4.429,4.429,0,0,1-1.259,3.233,4.254,4.254,0,0,1-3.169,1.283,4.991,4.991,0,0,1-2.254-.534,3.664,3.664,0,0,1-1.631-1.566,5.216,5.216,0,0,1-.559-2.513m2.331.121a2.848,2.848,0,0,0,.607,1.959,1.984,1.984,0,0,0,2.99,0,2.887,2.887,0,0,0,.6-1.975,2.834,2.834,0,0,0-.6-1.942,1.984,1.984,0,0,0-2.99,0,2.848,2.848,0,0,0-.607,1.959" transform="translate(-873.167 -348.333)" fill="#fff"/>
    <path id="Path_216" data-name="Path 216" d="M1084.479,383.749l2.6.316a.887.887,0,0,0,.3.623,1.709,1.709,0,0,0,1.02.243,2.648,2.648,0,0,0,1.335-.267,1.1,1.1,0,0,0,.453-.575,3.45,3.45,0,0,0,.105-1.044V381.79a3.077,3.077,0,0,1-2.574,1.392,3.169,3.169,0,0,1-2.744-1.465,4.98,4.98,0,0,1-.793-2.881,4.739,4.739,0,0,1,1.04-3.3,3.356,3.356,0,0,1,2.586-1.141,3.148,3.148,0,0,1,2.63,1.4v-1.206h2.128V382.3a7.677,7.677,0,0,1-.251,2.274,2.814,2.814,0,0,1-.7,1.182,3.116,3.116,0,0,1-1.21.672,6.37,6.37,0,0,1-1.914.243,4.954,4.954,0,0,1-3.1-.749,2.349,2.349,0,0,1-.915-1.9q0-.113.008-.275m2.031-5.042a3.1,3.1,0,0,0,.53,2,1.639,1.639,0,0,0,1.307.635,1.807,1.807,0,0,0,1.408-.651,2.841,2.841,0,0,0,.574-1.93,3.01,3.01,0,0,0-.55-1.983,1.749,1.749,0,0,0-1.392-.647,1.679,1.679,0,0,0-1.348.635,2.979,2.979,0,0,0-.53,1.938" transform="translate(-1008.714 -348.333)" fill="#fff"/>
    <rect id="Rectangle_47" data-name="Rectangle 47" width="2.274" height="11.865" transform="translate(86.1 22.985)" fill="#fff"/>
    <path id="Path_217" data-name="Path 217" d="M1299.225,380.447l2.266.38a3.717,3.717,0,0,1-1.38,1.9,4.053,4.053,0,0,1-2.359.651,3.846,3.846,0,0,1-3.318-1.465,4.92,4.92,0,0,1-.85-2.962,4.746,4.746,0,0,1,1.117-3.347,3.678,3.678,0,0,1,2.825-1.21,3.815,3.815,0,0,1,3.027,1.267,5.6,5.6,0,0,1,1.06,3.881h-5.7a2.3,2.3,0,0,0,.55,1.574,1.721,1.721,0,0,0,1.311.563,1.392,1.392,0,0,0,.9-.291,1.8,1.8,0,0,0,.551-.939m.129-2.3a2.191,2.191,0,0,0-.51-1.5,1.641,1.641,0,0,0-2.412.028,2.1,2.1,0,0,0-.478,1.473Z" transform="translate(-1203.543 -348.333)" fill="#fff"/>
    <path id="Path_218" data-name="Path 218" d="M1501.942,342.075V330.21h3.844a13.938,13.938,0,0,1,2.849.178,3.11,3.11,0,0,1,1.708,1.161,3.682,3.682,0,0,1,.688,2.311,3.871,3.871,0,0,1-.4,1.837,3.254,3.254,0,0,1-1.008,1.169,3.473,3.473,0,0,1-1.242.563,13.673,13.673,0,0,1-2.485.17h-1.562v4.476Zm2.4-9.857v3.367h1.311a6.2,6.2,0,0,0,1.894-.186,1.574,1.574,0,0,0,.749-.583,1.594,1.594,0,0,0,.271-.923,1.533,1.533,0,0,0-.38-1.068,1.657,1.657,0,0,0-.963-.526,11.524,11.524,0,0,0-1.724-.081Z" transform="translate(-1397.398 -307.225)" fill="#fff"/>
    <rect id="Rectangle_48" data-name="Rectangle 48" width="2.274" height="11.865" transform="translate(115.583 22.985)" fill="#fff"/>
    <path id="Path_219" data-name="Path 219" d="M1720.388,377.209l-2.063-.372a3.213,3.213,0,0,1,1.2-1.845,4.384,4.384,0,0,1,2.525-.6,5.441,5.441,0,0,1,2.266.36,2.261,2.261,0,0,1,1.048.914,4.689,4.689,0,0,1,.3,2.035l-.024,2.655a9.2,9.2,0,0,0,.109,1.671,4.871,4.871,0,0,0,.409,1.153h-2.25q-.089-.227-.218-.672-.057-.2-.081-.267a4.1,4.1,0,0,1-1.247.85,3.568,3.568,0,0,1-1.416.283,2.928,2.928,0,0,1-2.092-.72,2.394,2.394,0,0,1-.765-1.821,2.445,2.445,0,0,1,.348-1.3,2.275,2.275,0,0,1,.975-.874,7.619,7.619,0,0,1,1.809-.53,12.394,12.394,0,0,0,2.209-.558v-.227a1.177,1.177,0,0,0-.324-.935,1.939,1.939,0,0,0-1.222-.279,1.628,1.628,0,0,0-.947.239,1.66,1.66,0,0,0-.55.838m3.043,1.845a14.227,14.227,0,0,1-1.384.348,4.162,4.162,0,0,0-1.238.4.948.948,0,0,0-.446.8,1.115,1.115,0,0,0,.356.825,1.242,1.242,0,0,0,.906.348,1.969,1.969,0,0,0,1.174-.4,1.423,1.423,0,0,0,.542-.753,4.49,4.49,0,0,0,.089-1.109Z" transform="translate(-1598.5 -348.333)" fill="#fff"/>
    <path id="Path_220" data-name="Path 220" d="M1843.663,377.184h2.42l2.056,6.1,2.007-6.1h2.355l-3.035,8.271-.542,1.5a6.1,6.1,0,0,1-.571,1.149,2.482,2.482,0,0,1-.623.643,2.721,2.721,0,0,1-.866.384,4.5,4.5,0,0,1-1.161.138,6.025,6.025,0,0,1-1.287-.138l-.2-1.78a5.034,5.034,0,0,0,.963.105,1.427,1.427,0,0,0,1.174-.465,3.226,3.226,0,0,0,.583-1.186Z" transform="translate(-1715.333 -350.93)" fill="#fff"/>
    <path id="Path_221" data-name="Path 221" d="M613.089,152.472v-.979l2.881-.006v3.085a4.935,4.935,0,0,1-1.37.971,3.446,3.446,0,0,1-1.455.325,3.23,3.23,0,0,1-1.777-.5,3.408,3.408,0,0,1-1.237-1.456,5.311,5.311,0,0,1-.456-2.3,5.677,5.677,0,0,1,.458-2.368,3.358,3.358,0,0,1,1.2-1.487,3.162,3.162,0,0,1,1.755-.479,2.913,2.913,0,0,1,1.308.277,2.446,2.446,0,0,1,.923.787,3.679,3.679,0,0,1,.543,1.4l-.809.272a3.027,3.027,0,0,0-.413-1.05,1.71,1.71,0,0,0-.657-.546,2.07,2.07,0,0,0-.917-.2,2.231,2.231,0,0,0-1.276.36,2.473,2.473,0,0,0-.861,1.119,4.7,4.7,0,0,0-.325,1.852,3.809,3.809,0,0,0,.7,2.5,2.251,2.251,0,0,0,1.811.83,2.612,2.612,0,0,0,1.09-.255,2.773,2.773,0,0,0,.886-.606v-1.545Z" transform="translate(-567.239 -137.029)" fill="#fff"/>
    <path id="Path_222" data-name="Path 222" d="M719.218,157.694v-8.3h4.919v.979h-4.019v2.536h3.764v.979h-3.764v2.825H724.3v.979Z" transform="translate(-669.156 -138.997)" fill="#fff"/>
    <path id="Path_223" data-name="Path 223" d="M805.141,157.694v-7.319H802.9V149.4h5.395v.979h-2.253v7.319Z" transform="translate(-747.013 -138.997)" fill="#fff"/>
    <rect id="Rectangle_49" data-name="Rectangle 49" width="0.9" height="8.298" transform="translate(64.842 10.399)" fill="#fff"/>
    <path id="Path_224" data-name="Path 224" d="M962.176,157.694v-7.319h-2.242V149.4h5.395v.979h-2.253v7.319Z" transform="translate(-893.117 -138.997)" fill="#fff"/>
    <path id="Path_225" data-name="Path 225" d="M1082.488,151.685a5.03,5.03,0,0,1,.934-3.263,2.891,2.891,0,0,1,2.327-1.141,2.836,2.836,0,0,1,1.642.509,3.44,3.44,0,0,1,1.175,1.48,5.645,5.645,0,0,1,.433,2.312,5.013,5.013,0,0,1-.838,3.006,2.907,2.907,0,0,1-4.84-.034,4.878,4.878,0,0,1-.832-2.87m.928.014a3.727,3.727,0,0,0,.676,2.382,2.03,2.03,0,0,0,3.306-.008,4.016,4.016,0,0,0,.671-2.515,5.021,5.021,0,0,0-.345-1.915,2.353,2.353,0,0,0-.8-1.034,1.947,1.947,0,0,0-1.169-.388,2.037,2.037,0,0,0-1.678.85,4.274,4.274,0,0,0-.659,2.628" transform="translate(-1007.14 -137.029)" fill="#fff"/>
    <path id="Path_226" data-name="Path 226" d="M1192.03,157.694v-8.3h.923l3.577,6.528V149.4h.861v8.3h-.923l-3.572-6.529v6.529Z" transform="translate(-1109.057 -138.997)" fill="#fff"/>
    <path id="Path_227" data-name="Path 227" d="M140.124,145.528l-7.239-6.071-7.254-6.083v-.615a1.342,1.342,0,0,1,1.993-1.173l11.591,6.425,5.421,3.005Z" transform="translate(-116.886 -122.268)" fill="#fff" stroke="#7600ff" stroke-width="1"/>
    <path id="Path_228" data-name="Path 228" d="M125.63,347.614V347l7.254-6.083,7.21-6.046,4.506,4.506-5.386,2.985-11.592,6.426a1.342,1.342,0,0,1-1.993-1.174" transform="translate(-116.885 -311.562)" fill="#fff" stroke="#7600ff" stroke-width="1"/>
    <path id="Path_229" data-name="Path 229" d="M125.63,183.883V159.55l7.254,6.083,7.239,6.071.015.012-.044.038-7.21,6.046Z" transform="translate(-116.886 -148.444)" fill="#fff"/>
    <path id="Path_230" data-name="Path 230" d="M125.63,183.883V159.55l7.254,6.083,7.239,6.071.015.012-.044.038-7.21,6.046Z" transform="translate(-116.886 -148.444)" fill="#fff" stroke="#7600ff" stroke-width="1"/>
    <path id="Path_231" data-name="Path 231" d="M337.927,278.4l-4.506-4.506.044-.038-.015-.012,4.512-4.512,6.045,3.351a1.342,1.342,0,0,1,0,2.347Z" transform="translate(-310.213 -250.59)" fill="#fff" stroke="#7600ff" stroke-width="1"/>
    <path id="Path_232" data-name="Path 232" d="M333.288,334.211l-.01-.01.039-.039.015.012Z" transform="translate(-310.08 -310.902)" fill="#fff"/>
  </g>
</svg>
