<svg xmlns="http://www.w3.org/2000/svg" width="39.906" height="44.453" viewBox="0 0 39.906 44.453">
  <g id="Group_688" data-name="Group 688" transform="translate(-1204 -1138.313)">
    <g id="hotel-3" transform="translate(1178.581 1138.313)">
      <path id="Path_234" data-name="Path 234" d="M107.35,0H84.633a3.622,3.622,0,0,0-3.622,3.622V14.261h29.962V3.622A3.623,3.623,0,0,0,107.35,0Z" transform="translate(-50.62)" fill="#ececec"/>
      <path id="Path_235" data-name="Path 235" d="M82.737,121.381H57.259a4.8,4.8,0,0,0-4.795,4.795v25.56H87.532v-25.56A4.8,4.8,0,0,0,82.737,121.381Z" transform="translate(-24.626 -110.524)" fill="#ff919e"/>
      <path id="Path_236" data-name="Path 236" d="M205.131,309.992H200.65a2.24,2.24,0,0,0-2.24,2.24v11.245h8.96V312.232A2.24,2.24,0,0,0,205.131,309.992Z" transform="translate(-157.518 -282.265)" fill="#6a647f"/>
      <g id="Group_380" data-name="Group 380" transform="translate(31.763 16.043)">
        <path id="Path_237" data-name="Path 237" d="M99.922,309.992H97.972a1.627,1.627,0,0,0-1.627,1.627v3.913a1.627,1.627,0,0,0,1.627,1.627h1.951a1.627,1.627,0,0,0,1.627-1.627v-3.913a1.627,1.627,0,0,0-1.627-1.627Z" transform="translate(-96.345 -298.308)" fill="#ffea98"/>
        <path id="Path_238" data-name="Path 238" d="M99.922,179.363H97.972a1.627,1.627,0,0,0-1.627,1.627V184.9a1.627,1.627,0,0,0,1.627,1.627h1.951a1.627,1.627,0,0,0,1.627-1.627V180.99a1.627,1.627,0,0,0-1.627-1.627Z" transform="translate(-96.345 -179.363)" fill="#ffea98"/>
        <path id="Path_239" data-name="Path 239" d="M222.985,179.363h-1.951a1.627,1.627,0,0,0-1.627,1.627V184.9a1.627,1.627,0,0,0,1.627,1.627h1.951a1.627,1.627,0,0,0,1.627-1.627V180.99a1.627,1.627,0,0,0-1.627-1.627Z" transform="translate(-208.401 -179.363)" fill="#ffea98"/>
        <path id="Path_240" data-name="Path 240" d="M344.1,309.992h1.951a1.627,1.627,0,0,1,1.627,1.627v3.913a1.627,1.627,0,0,1-1.627,1.627H344.1a1.627,1.627,0,0,1-1.627-1.627v-3.913A1.627,1.627,0,0,1,344.1,309.992Z" transform="translate(-320.455 -298.308)" fill="#ffea98"/>
        <path id="Path_241" data-name="Path 241" d="M344.1,179.363h1.951a1.627,1.627,0,0,1,1.627,1.627V184.9a1.627,1.627,0,0,1-1.627,1.627H344.1a1.627,1.627,0,0,1-1.627-1.627V180.99a1.627,1.627,0,0,1,1.627-1.627Z" transform="translate(-320.455 -179.363)" fill="#ffea98"/>
      </g>
      <g id="Group_381" data-name="Group 381" transform="translate(32.881 2.236)">
        <path id="Path_242" data-name="Path 242" d="M355.69,30.083h0l-1.106,0V25.672a.671.671,0,1,0-1.342,0v5.082a.671.671,0,0,0,.558.661c.143.024,1.6.011,1.9.01a.671.671,0,0,0,0-1.342Z" transform="translate(-331.379 -25.001)" fill="#423e4f"/>
        <path id="Path_243" data-name="Path 243" d="M113.04,25a.671.671,0,0,0-.671.671v1.785h-2.178V25.672a.671.671,0,1,0-1.342,0v5.086a.671.671,0,1,0,1.342,0V28.8h2.178v1.96a.671.671,0,1,0,1.342,0V25.672A.671.671,0,0,0,113.04,25Z" transform="translate(-108.85 -25.001)" fill="#423e4f"/>
        <path id="Path_244" data-name="Path 244" d="M305.518,26.862a.671.671,0,1,0,0-1.342h-2.124a.671.671,0,0,0-.671.671v5.04a.671.671,0,0,0,.671.671h2.124a.671.671,0,1,0,0-1.342h-1.453V29.382h1.3a.671.671,0,1,0,0-1.342h-1.3V26.862Z" transform="translate(-285.383 -25.474)" fill="#423e4f"/>
        <path id="Path_245" data-name="Path 245" d="M248.74,25h-2.809a.671.671,0,0,0,0,1.342h.728v4.415a.671.671,0,1,0,1.342,0V26.343h.739a.671.671,0,1,0,0-1.342Z" transform="translate(-233.059 -25.001)" fill="#423e4f"/>
        <path id="Path_246" data-name="Path 246" d="M175.062,25a3.214,3.214,0,1,0,3.214,3.214A3.218,3.218,0,0,0,175.062,25Zm0,5.086a1.872,1.872,0,1,1,1.872-1.872A1.874,1.874,0,0,1,175.062,30.087Z" transform="translate(-166.213 -25.001)" fill="#423e4f"/>
      </g>
      <path id="Path_247" data-name="Path 247" d="M62.59,430.553H28.155a2.736,2.736,0,0,0-2.736,2.736v1.687a1.52,1.52,0,0,0,1.52,1.52H63.8a1.52,1.52,0,0,0,1.52-1.52v-1.687A2.736,2.736,0,0,0,62.59,430.553Z" transform="translate(0 -392.043)" fill="#d7d6d9"/>
      <path id="Path_248" data-name="Path 248" d="M54.385,135.4a29.337,29.337,0,0,1,3.542-14.019h-.668a4.8,4.8,0,0,0-4.795,4.795v25.56h6.861A29.331,29.331,0,0,1,54.385,135.4Z" transform="translate(-24.626 -110.525)" fill="#ff737d"/>
      <path id="Path_249" data-name="Path 249" d="M33.1,430.553H28.155a2.736,2.736,0,0,0-2.736,2.736v1.687a1.52,1.52,0,0,0,1.52,1.52H37.2a29.534,29.534,0,0,1-4.106-5.943Z" transform="translate(0 -392.043)" fill="#c5c4c9"/>
      <path id="Path_250" data-name="Path 250" d="M98.083,182.012a14.962,14.962,0,0,1,.111-2.649h-.222a1.627,1.627,0,0,0-1.627,1.627V184.9a1.627,1.627,0,0,0,1.627,1.627h1.951a1.617,1.617,0,0,0,.981-.331A4.518,4.518,0,0,1,98.083,182.012Z" transform="translate(-64.581 -163.32)" fill="#f9d888"/>
      <path id="Path_251" data-name="Path 251" d="M221.146,182.012a14.961,14.961,0,0,1,.111-2.649h-.222a1.627,1.627,0,0,0-1.627,1.627V184.9a1.627,1.627,0,0,0,1.627,1.627h1.951a1.617,1.617,0,0,0,.981-.331A4.518,4.518,0,0,1,221.146,182.012Z" transform="translate(-176.637 -163.32)" fill="#f9d888"/>
      <path id="Path_252" data-name="Path 252" d="M344.209,182.012a14.964,14.964,0,0,1,.111-2.649H344.1a1.627,1.627,0,0,0-1.627,1.627V184.9a1.627,1.627,0,0,0,1.627,1.627h1.951a1.617,1.617,0,0,0,.981-.331A4.518,4.518,0,0,1,344.209,182.012Z" transform="translate(-288.693 -163.32)" fill="#f9d888"/>
      <path id="Path_253" data-name="Path 253" d="M98.083,312.64a14.962,14.962,0,0,1,.111-2.649h-.222a1.627,1.627,0,0,0-1.627,1.627v3.913a1.627,1.627,0,0,0,1.627,1.627h1.951a1.617,1.617,0,0,0,.981-.331A4.518,4.518,0,0,1,98.083,312.64Z" transform="translate(-64.581 -282.264)" fill="#f9d888"/>
      <path id="Path_254" data-name="Path 254" d="M344.209,312.64a14.964,14.964,0,0,1,.111-2.649H344.1a1.627,1.627,0,0,0-1.627,1.627v3.913a1.627,1.627,0,0,0,1.627,1.627h1.951a1.617,1.617,0,0,0,.981-.331A4.518,4.518,0,0,1,344.209,312.64Z" transform="translate(-288.693 -282.264)" fill="#f9d888"/>
    </g>
  </g>
</svg>
