<svg id="Group_45" data-name="Group 45" xmlns="http://www.w3.org/2000/svg" xmlns:xlink="http://www.w3.org/1999/xlink" width="26" height="26" viewBox="0 0 26 26">
  <defs>
    <clipPath id="clip-path">
      <rect id="Rectangle_34" data-name="Rectangle 34" width="26" height="26" fill="none"/>
    </clipPath>
  </defs>
  <g id="Group_44" data-name="Group 44" clip-path="url(#clip-path)">
    <path id="Path_123" data-name="Path 123" d="M26.047,13.024A13.024,13.024,0,1,1,13.024,0,13.024,13.024,0,0,1,26.047,13.024" fill="#006c35"/>
    <path id="Path_124" data-name="Path 124" d="M636.31,837.227a.862.862,0,0,1,.382-.09.241.241,0,0,1-.123.111c-.352.118-.708.279-.824.3l-.023-.058a3.855,3.855,0,0,1,.588-.264m-1.517-.048a.071.071,0,0,1,.043-.111.218.218,0,0,1,.208.131.362.362,0,0,1,.008.337.825.825,0,0,0-.055-.219c-.05-.065-.143-.078-.2-.138m-2.429-.229c.093-.028.251.015.259.05.015.078-.166.153-.249.2-.04.025-.053.068.013.083a.326.326,0,0,0,.208-.048.686.686,0,0,1,.226-.088c-.073.065-.143.128-.216.188a.343.343,0,0,1-.311.043c-.05-.015-.118-.06-.1-.126s.11-.123.173-.171l-.131,0a.192.192,0,0,1,.126-.133m.621.093a.239.239,0,0,1,.161-.126c-.063.075-.1.108-.088.168s.07.045.1.105c.038.08-.118.116-.163.063a.2.2,0,0,1-.008-.211m-2.532-.123a.146.146,0,0,1,.156.045.087.087,0,0,1,0,.133c-.065.048-.183,0-.219.083-.018.045.013.06.055.128a.2.2,0,0,1-.045.234.5.5,0,0,0-.083-.281.154.154,0,0,1-.013-.168c.028-.05.116-.073.143-.09-.065-.02-.04-.063.008-.083m-5.389-.467a.613.613,0,0,1,.279-.244,1.44,1.44,0,0,1-.123.219.337.337,0,0,0-.035.171,1.9,1.9,0,0,0,.231-.033.28.28,0,0,1-.1.163.19.19,0,0,1-.221.018.254.254,0,0,1-.03-.294m4.027-.553a.147.147,0,0,1,.219.043c.02.043-.023.075-.04.106a.5.5,0,0,0-.1-.053c-.033-.01-.043.028-.055.05a3.091,3.091,0,0,0-.09.3.9.9,0,0,0-.075-.176,1.022,1.022,0,0,0-.158-.136c-.048-.04,0-.123.058-.113.075.01.123.08.176.131a.5.5,0,0,1,.07-.148m3.811-.193c.015-.063.088-.073.143-.09a.542.542,0,0,0,.08.264l-.088.01a.4.4,0,0,1-.151.158.692.692,0,0,1-.357.048c.128-.035.286-.043.369-.158.058-.068,0-.153,0-.231m-6.931-.148c.138-.058.181.1.063.148-.286.128-.492.216-.739.347-.043.02-.1.05-.121.008s.04-.1.093-.126a5.666,5.666,0,0,1,.7-.377m5.241-.364a.093.093,0,0,1,.093-.043c-.045.118.075.161.07.284a.138.138,0,0,1-.146.143.234.234,0,0,1-.148-.07c-.048.04-.1.093-.168.078a.211.211,0,0,1-.143-.249c.013-.07.065-.105.116-.146a.635.635,0,0,0-.03.2c.01.05.11.1.131.02.013-.053.008-.131.015-.171.01-.065.07-.055.1-.078a.5.5,0,0,0,.028.224c.04.07.123.053.118-.005-.008-.075-.05-.138-.035-.191m-5.71.015a.15.15,0,0,1,.141-.111c.065.005.136.045.141.111.07.015.131.07.123.133s-.04.131-.208.111a.877.877,0,0,1-.668.327c.02-.068.068-.078.123-.093a.913.913,0,0,0,.445-.281.244.244,0,0,1-.1-.2m.1-.013c-.035.038-.005.105.053.143a.154.154,0,0,0,.035-.126.055.055,0,0,0-.088-.018m.138.183a.1.1,0,0,0,.1-.03c.018-.03-.018-.1-.058-.118a.355.355,0,0,1-.045.148m4.457-.322a1.92,1.92,0,0,1,.427.7,6.682,6.682,0,0,1,.151.774.8.8,0,0,0,.136.372.675.675,0,0,0,.221.163.305.305,0,0,1,.116-.219,2.96,2.96,0,0,1,.774-.339c-.415-.018-.942.023-1.186-.023a.4.4,0,0,1,.045-.2.833.833,0,0,1,.357-.279,3.216,3.216,0,0,1,.633-.259c-.058-.06-.148-.131-.121-.226a.3.3,0,0,1,.269-.226.833.833,0,0,1,.4.128c.075.048.166.1.191.186a.316.316,0,0,1-.073.173c-.078.1-.214.088-.329.1-.005.075-.015.168-.093.2-.023-.06-.048-.118-.073-.178a1.708,1.708,0,0,0-.746.367c.618,0,1.231-.013,1.849-.01a.972.972,0,0,1,.121.013c-.028.163-.191.241-.337.276-.291.065-.583.123-.874.178a2.649,2.649,0,0,0-.638.2.516.516,0,0,0-.183.163,2.65,2.65,0,0,0,.447.113c.05.013.121.023.133.083a.227.227,0,0,1-.053.244.789.789,0,0,1-.3-.018,1.007,1.007,0,0,1-.681-.41,1.333,1.333,0,0,1-.181-.573,2.6,2.6,0,0,1-1.158.874.4.4,0,0,1-.374,0,.421.421,0,0,1-.143-.229,3.158,3.158,0,0,1-1.585.432,10.513,10.513,0,0,0,1.548-.739,1.917,1.917,0,0,1,.088-.281.628.628,0,0,1,.239-.254,1.567,1.567,0,0,0-.151.435,3.288,3.288,0,0,0,.6-.455c.045-.05.113-.116.085-.191-.033-.108-.09-.2-.131-.309a1.05,1.05,0,0,1-.116-.482.289.289,0,0,1,.07-.138,1.119,1.119,0,0,1,.324.4l-.093.02a2.573,2.573,0,0,1,.176.462.435.435,0,0,1-.1.364,5.694,5.694,0,0,1-.774.631.419.419,0,0,0,.417,0,4.7,4.7,0,0,0,1.038-.711,4.365,4.365,0,0,0-.359-.854.4.4,0,0,1,0-.452m1.854.623a.3.3,0,0,0,.251-.088c-.083-.065-.239-.141-.319-.108-.161.065.008.181.068.2m2.507-.656c.271-.126.236.005.03.1-.269.123-.41.2-.668.339-.055.03-.078-.045-.038-.07.3-.176.457-.271.676-.372m-2.138-.138a.155.155,0,0,1,.151-.04.193.193,0,0,1,0,.246.525.525,0,0,1-.417.186,1.871,1.871,0,0,0,.3-.161c.04-.03.033-.083.04-.128l-.138.023a.683.683,0,0,1,.068-.126m4.628-.286a.077.077,0,0,1,.075-.1.239.239,0,0,1,.186.138.555.555,0,0,1,.048.45c-.03-.131-.028-.3-.148-.382a.645.645,0,0,1-.161-.1m-9.712-.5c.025-.043.1-.023.141.018a.462.462,0,0,1,.123.445.726.726,0,0,0-.158-.3c-.053-.048-.133-.108-.106-.161m6.972-.3a.76.76,0,0,1,.2-.025.33.33,0,0,1-.118.093,6.814,6.814,0,0,0-.691.276l.06.123a.251.251,0,0,1-.156-.055.089.089,0,0,1,0-.133.56.56,0,0,1,.121-.065c.191-.07.382-.148.58-.214m-6.823-.1c.015-.01.121.106.083.168-.025.04-.093.043-.161.043a.166.166,0,0,1-.123.038.08.08,0,0,1-.063-.068c-.008-.048.023-.143.038-.143s-.005.1.015.128.09.03.088-.023l-.008-.075a.028.028,0,1,1,.055-.008.23.23,0,0,0,.018.088c.02.025.068.01.078-.033s-.035-.1-.02-.116m1.1-.07c.05-.013.111-.033.151.013a.468.468,0,0,1,.136.45c-.025-.06-.045-.126-.075-.183-.05-.108-.161-.171-.211-.279m.744-.068c.02-.106.178-.1.229-.023.033.058.05.118.083.176a.25.25,0,0,1,.048.186c-.03.106-.108.188-.118.3a1.13,1.13,0,0,0,.11-.055c-.01.058,0,.136-.06.166a.118.118,0,0,1-.158-.113c.01-.143.151-.256.108-.409a.917.917,0,0,1-.573.392,3.209,3.209,0,0,0,.314-.236.8.8,0,0,0,.141-.2c-.05-.05-.136-.1-.123-.181m.1-.01a.244.244,0,0,0,.085.083.128.128,0,0,0-.085-.083m-4.386.173a.6.6,0,0,1,.289-.269,1.7,1.7,0,0,1-.121.221.331.331,0,0,0-.033.171.975.975,0,0,0,.231-.048.351.351,0,0,1-.105.171.2.2,0,0,1-.214.025.241.241,0,0,1-.048-.271m9.016-.269a.164.164,0,0,1,.206.068.074.074,0,0,1-.038.085.826.826,0,0,1-.138-.053,1.981,1.981,0,0,0-.121.349.693.693,0,0,0-.08-.168c-.045-.063-.121-.1-.173-.153a.079.079,0,0,1,.093-.093.334.334,0,0,1,.161.151c.02-.068.03-.148.09-.186m-2.251.048c.008-.045.05-.093.1-.065a.63.63,0,0,1,.284.314l-.138-.005a1.982,1.982,0,0,0,.085.261,1.6,1.6,0,0,1,.141.369.517.517,0,0,1-.108.425.5.5,0,0,1-.751-.055.931.931,0,0,1-.131-.276.81.81,0,0,1-.359.523.6.6,0,0,1-.636-.023.4.4,0,0,1-.191-.334,2.635,2.635,0,0,1,.09-.575.412.412,0,0,0-.111.171,4.442,4.442,0,0,1-.229.643.345.345,0,0,1-.259.191.325.325,0,0,1-.294-.131.546.546,0,0,1-.07-.3,1.037,1.037,0,0,1,.113-.462,1.244,1.244,0,0,0,.04.608.217.217,0,0,0,.289.108.468.468,0,0,0,.171-.264,4.028,4.028,0,0,1,.249-.623.691.691,0,0,1,.163-.219.288.288,0,0,1,.138-.043,2.027,2.027,0,0,1-.126.507.513.513,0,0,0,.065.452.5.5,0,0,0,.49.118.611.611,0,0,0,.407-.548.733.733,0,0,0-.063-.427c-.033-.068-.1-.138-.07-.221a.28.28,0,0,1,.148-.183.608.608,0,0,1,.1.261,2.908,2.908,0,0,0,.108.656.555.555,0,0,0,.241.3c.173.093.487.068.435-.183a5.57,5.57,0,0,0-.276-.631.668.668,0,0,1-.048-.342m-1.374-.038a.12.12,0,0,1,.148-.008.343.343,0,0,1,.146.3.5.5,0,0,1-.043.148.786.786,0,0,0-.043-.216c-.05-.07-.146-.083-.206-.141a.053.053,0,0,1,0-.083m-2.309.01a.31.31,0,0,1,.146-.093,1.2,1.2,0,0,1,.209.46.489.489,0,0,1,0,.191l-.113-.038c.043.309.1.616.133.925.178-.088.342-.191.528-.269a.617.617,0,0,1,.181-.045.21.21,0,0,1-.105.126c-.193.1-.392.183-.583.294.018.153.035.309.055.462.085-.113.163-.254.314-.289.008.083-.02.183.04.249a.253.253,0,0,0,.309-.038,1.441,1.441,0,0,1,.05-.357c.038.015.083.023.1.068a.582.582,0,0,1,0,.347.453.453,0,0,1-.249.281.3.3,0,0,1-.236.023.512.512,0,0,1-.183-.176,1.007,1.007,0,0,0-.128.349,1.32,1.32,0,0,1-.284.754c-.61.774-2.123,1.105-2.52.621a3.466,3.466,0,0,1-.708-.008c.2-.068.407-.118.6-.193a1.49,1.49,0,0,1,.382-1.264,1.917,1.917,0,0,0-.156.352,1.527,1.527,0,0,0,.013.816,6.01,6.01,0,0,0,1.284-.623c.181-.123.347-.266.309-.442a1.882,1.882,0,0,1-.437.093.372.372,0,0,1-.261-.1.324.324,0,0,1-.055-.271.521.521,0,0,1,.171-.322.386.386,0,0,1,.4-.033.6.6,0,0,1,.254.294c.188-.07.317-.236.5-.317a.431.431,0,0,0,.07.284c.043.055.118.053.178.058-.01-.153-.035-.3-.055-.452-.063-.5-.126-1-.181-1.507a.369.369,0,0,1,.025-.211m-1.148,2.178c-.015.035.025.055.05.07a.616.616,0,0,0,.316-.008.311.311,0,0,0-.206-.123c-.055-.005-.136,0-.161.06m.731.206a.742.742,0,0,1-.329.7,6.774,6.774,0,0,1-1.2.668,3.064,3.064,0,0,0,1.522-.339,1.07,1.07,0,0,0,.691-.965c-.261,0-.354-.048-.455-.244a1.5,1.5,0,0,1-.226.178m4.572-2.243a.634.634,0,0,1,.279-.246,1.292,1.292,0,0,1-.121.216.323.323,0,0,0-.038.173,1.164,1.164,0,0,0,.229-.035.291.291,0,0,1-.1.163.19.19,0,0,1-.224.018.25.25,0,0,1-.028-.289m-4.6-.246c.04-.025.078.02.1.048a1.193,1.193,0,0,1,.216.319c-.04.005-.083.013-.123.02.01.191.171.322.216.5a.7.7,0,0,1,.015.344.406.406,0,0,1-.319.312.61.61,0,0,1-.53-.148.821.821,0,0,1-.163-.332.852.852,0,0,1-.45.6,9.076,9.076,0,0,1,.03,1.279.446.446,0,0,1-.131.344,4.392,4.392,0,0,1-.068-.52c-.038-.354-.063-.706-.1-1.06-.52-.078-.53-.548-.389-1a.479.479,0,0,0-.113.178,5.639,5.639,0,0,1-.214.641.288.288,0,0,1-.2.166.349.349,0,0,1-.319-.065A.706.706,0,0,1,625,834.5a.512.512,0,0,1,.045-.234.372.372,0,0,1,.163-.143.57.57,0,0,0-.1.211,1.17,1.17,0,0,0,.025.324c.018.118.065.211.181.221s.2-.018.259-.2c.065-.206.121-.415.206-.613a.58.58,0,0,1,.392-.364c-.02.226-.126.437-.131.666a.415.415,0,0,0,.073.294.371.371,0,0,0,.211.113l-.07-.932a1.461,1.461,0,0,1-.008-.347c.018-.08.106-.108.171-.136a1.126,1.126,0,0,1,.219.643l-.128-.03c.028.264.055.533.085.8a.491.491,0,0,0,.274-.2.765.765,0,0,0,.088-.648c-.028-.093-.07-.181-.09-.276a.189.189,0,0,1,.123-.209c.038-.018.055.028.07.053a1.49,1.49,0,0,1,.09.349,3.249,3.249,0,0,0,.058.467.5.5,0,0,0,.573.359c.181-.053.116-.284.058-.407a2.922,2.922,0,0,1-.271-.641.234.234,0,0,1,.093-.249m9.258.271a3.635,3.635,0,0,1,.45-.307.918.918,0,0,1-.332.452c-.073.058-.04.163-.05.244L636.87,834l.126,1.548a3.248,3.248,0,0,1,.656.7,1.147,1.147,0,0,1,.128.3,1.776,1.776,0,0,0,.015-.565c-.08-.726-.153-1.457-.216-2.188a1.372,1.372,0,0,1-.01-.269.17.17,0,0,1,.173-.148.422.422,0,0,1,.1.156.952.952,0,0,1,.111.482l-.123-.045c.093.789.191,1.628.191,2.113a1.838,1.838,0,0,1-.035.377,1.226,1.226,0,0,1-.48.791,2.119,2.119,0,0,1-.749.284.664.664,0,0,1-.322,0c.111-.06.234-.1.352-.156a2.441,2.441,0,0,0,.892-.585,1.864,1.864,0,0,0-.656-.894,5.736,5.736,0,0,1-.04,1.038.361.361,0,0,1-.106.214,3.008,3.008,0,0,1-.055-.45l-.083-1.053-.678-.651.1,1.161a2.825,2.825,0,0,1-.038.849.514.514,0,0,1-.415.324c-.209.015-.42.013-.53-.2-.055-.108-.088-.229-.133-.342a.459.459,0,0,0-.241.106,1.223,1.223,0,0,0-.239.49c-.065.166-.133.294-.309.294a.551.551,0,0,1-.475-.45c-.038-.143.02-.254-.055-.369a.486.486,0,0,1,.005-.337,1.118,1.118,0,0,1,.322-.5l-.575-.512a8.556,8.556,0,0,1-.005,1.389.391.391,0,0,1-.111.244,1.812,1.812,0,0,1-.04-.264l-.121-1.615s-.442-.437-.618-.646a1.469,1.469,0,0,1-.256-.412c-.02-.063-.038-.151.023-.2a.522.522,0,0,1,.193.068,1.417,1.417,0,0,1,.307.244.36.36,0,0,1,.078.151l-.168-.005a2.3,2.3,0,0,0,.417.452l-.1-1.3c-.013-.181.063-.2.183-.246a1.378,1.378,0,0,1,.2.452.583.583,0,0,1,.01.2l-.116-.035.09,1.163.781.7.578-.482c-.073-.681-.158-1.231-.161-1.786a.175.175,0,0,1,.158-.181c.04-.005.058.04.078.065a1.442,1.442,0,0,1,.146.379.442.442,0,0,1,0,.2l-.113-.05.126,1.176.643-.538-.4-.379a.705.705,0,0,1-.211-.281.473.473,0,0,1,.008-.251.954.954,0,0,1,.4.2,2.045,2.045,0,0,1,.231.211c-.008-.166-.028-.332-.04-.5a.262.262,0,0,1,.038-.186.373.373,0,0,1,.141-.08,1.259,1.259,0,0,1,.2.435.665.665,0,0,1,.018.211c-.04-.01-.068-.02-.108-.03l.04.384.6-.5a2.387,2.387,0,0,1-.01-.339.17.17,0,0,1,.176-.143.855.855,0,0,1,.153.256m-.894,1,.686.651-.09-1.153Zm-.44-.417.153.143-.018-.151Zm-.51,1.221c-.02.347.04.814-.143.912a6.423,6.423,0,0,1-.09-.716l-.425.359a.73.73,0,0,1,.183.309.454.454,0,0,1-.141.46,1.107,1.107,0,0,1-.59.183,1.079,1.079,0,0,0,.138.389.215.215,0,0,0,.219.105.307.307,0,0,0,.183-.2,2.746,2.746,0,0,1,.241-.487.46.46,0,0,1,.364-.236c.05,0,.118-.013.148.043.068.111.093.241.173.349a.354.354,0,0,0,.332.141c.141-.013.364-.06.327-.309l-.2-1.909Zm-1.193,1.188a.722.722,0,0,0,.46-.108c.138-.09-.01-.259-.126-.354a1.112,1.112,0,0,0-.334.462m-3.09-2.65a.1.1,0,0,1,.093-.043c-.045.118.073.161.068.284a.141.141,0,0,1-.143.146.256.256,0,0,1-.151-.073c-.048.04-.1.093-.168.078a.212.212,0,0,1-.141-.249.244.244,0,0,1,.113-.146.575.575,0,0,0-.028.206c.01.048.111.1.128.018.013-.053.008-.131.015-.171.013-.065.07-.055.1-.078a.5.5,0,0,0,.03.224c.04.07.121.053.116,0-.005-.075-.05-.138-.033-.191m3.475.5a.094.094,0,0,1,.093-.043c-.045.118.075.161.068.284a.142.142,0,0,1-.143.146.248.248,0,0,1-.148-.073c-.048.04-.1.093-.168.078a.211.211,0,0,1-.143-.249c.013-.07.065-.106.116-.146a.641.641,0,0,0-.03.206c.01.048.111.1.131.018.01-.053.005-.131.013-.171.013-.065.073-.055.1-.078a.5.5,0,0,0,.028.224c.04.07.123.053.118-.005-.008-.075-.053-.138-.035-.191m1.148,1.387a.147.147,0,0,1,.141-.111.14.14,0,0,1,.141.111c.07.015.131.07.123.133s-.04.131-.208.108a.873.873,0,0,1-.668.329c.02-.068.068-.078.123-.093a.914.914,0,0,0,.445-.281.243.243,0,0,1-.1-.2m.1-.013c-.035.038-.005.105.053.143a.153.153,0,0,0,.035-.126.055.055,0,0,0-.088-.018m.138.183a.1.1,0,0,0,.1-.03c.018-.03-.018-.1-.058-.118a.357.357,0,0,1-.045.148m-.329,5.866h-.362c-.04.053-.1.116-.138.116a.292.292,0,0,1-.158-.161c0-.033.055-.1.105-.136v-.1h-6.557c-.864,0-1.294-.008-1.583-.3h8.14v-.1c-.048-.038-.105-.1-.105-.136a.158.158,0,1,1,.317,0c0,.033-.058.1-.106.136v.1h1.105c.3,0,.417.025.417.3,0,.289-.078.342-.2.342a.205.205,0,0,1-.166-.063h-.43a.184.184,0,0,1-.2.055.137.137,0,0,1-.082-.055m.279-.09h.379a.3.3,0,0,1,0-.188h-1.105v.1a.488.488,0,0,1,.086.09h.362a.184.184,0,0,1,.2-.055.138.138,0,0,1,.082.055" transform="translate(-618.488 -824.651)" fill="#fff"/>
  </g>
</svg>
