<svg xmlns="http://www.w3.org/2000/svg" width="41.727" height="37.617" viewBox="0 0 41.727 37.617">
  <g id="Group_682" data-name="Group 682" transform="translate(-387.273 -1145.489)">
    <path id="Path_519" data-name="Path 519" d="M72.991,175.07h27.846v22.523H72.991Z" transform="translate(320.411 983.062)" fill="#eef5f6"/>
    <path id="Path_520" data-name="Path 520" d="M394.009,175.07h2.519v22.523h-2.519Z" transform="translate(26.344 983.062)" fill="#deecf1"/>
    <path id="Path_521" data-name="Path 521" d="M203.636,269.086l-8.044-.84V255.81l.084-1.762a.84.84,0,0,1,.84-.84h7.037a.84.84,0,0,1,.84.84l.084,1.762Z" transform="translate(208.103 911.484)" fill="#b57f5f"/>
    <path id="Path_522" data-name="Path 522" d="M339.511,264.511h-2.462a.42.42,0,0,1-.42-.42V252.629a.42.42,0,0,1,.42-.42h2.462a.42.42,0,0,1,.42.42v11.463A.42.42,0,0,1,339.511,264.511Z" transform="translate(78.907 912.4)" fill="#a4ccff"/>
    <path id="Path_523" data-name="Path 523" d="M114.767,264.511h-3.3a.42.42,0,0,1-.42-.42V252.629a.42.42,0,0,1,.42-.42h3.3a.42.42,0,0,1,.42.42v11.463A.42.42,0,0,1,114.767,264.511Z" transform="translate(285.551 912.4)" fill="#a4ccff"/>
    <g id="Group_496" data-name="Group 496" transform="translate(405.222 1171.54)">
      <path id="Path_524" data-name="Path 524" d="M215.479,336.03h-1.062a.63.63,0,0,1,0-1.259h1.062a.63.63,0,0,1,0,1.259Z" transform="translate(-213.787 -334.771)" fill="#9f6e50"/>
    </g>
    <path id="Path_525" data-name="Path 525" d="M72.975,38.65H41.321a.84.84,0,0,1-.827-.986l2.22-12.495a.84.84,0,0,1,.827-.693H70.755a.84.84,0,0,1,.827.693L73.8,37.663A.84.84,0,0,1,72.975,38.65Z" transform="translate(350.191 1121.013)" fill="#f26c72"/>
    <path id="Path_526" data-name="Path 526" d="M395.635,37.663l-2.22-12.495a.84.84,0,0,0-.827-.693h-2.519a.84.84,0,0,1,.827.693l2.22,12.495a.84.84,0,0,1-.827.986h2.519A.84.84,0,0,0,395.635,37.663Z" transform="translate(29.953 1121.013)" fill="#e95059"/>
    <path id="Path_527" data-name="Path 527" d="M217.784,76.018l-1.6.084h-.32l-.63-.84-.63.84h-2a.42.42,0,0,1-.42-.42V72.376a2.746,2.746,0,0,1,3.048-2.964,2.907,2.907,0,0,1,2.964,2.964V75.6A.42.42,0,0,1,217.784,76.018Z" transform="translate(192.897 1079.861)" fill="#b57f5f"/>
    <path id="Path_528" data-name="Path 528" d="M239.34,69.337c-.216,0-.426-.145-.63-.1q-.106.023-.21.052a3.049,3.049,0,0,1,2.209,2.93v3.306a.42.42,0,0,1-.42.42h1.679a.42.42,0,0,0,.42-.42V72.218a3.049,3.049,0,0,0-2.419-2.983C239.766,69.192,239.555,69.337,239.34,69.337Z" transform="translate(168.797 1080.02)" fill="#9f6e50"/>
    <path id="Path_529" data-name="Path 529" d="M242.259,76.563V70.849c-.1-.576-.414-.892-.63-.892s-.462-.133-.63.019v6.587Z" transform="translate(166.507 1079.399)" fill="#eef5f6"/>
    <path id="Path_530" data-name="Path 530" d="M242.259,68.608a3.06,3.06,0,0,0-1.259,0v.121a3.054,3.054,0,0,1,1.259.873Z" transform="translate(166.507 1080.646)" fill="#deecf1"/>
    <path id="Path_531" data-name="Path 531" d="M367.213,252.209h-1.259a.42.42,0,0,1,.42.42v11.463a.42.42,0,0,1-.42.42h1.259a.42.42,0,0,0,.42-.42v-5.1l-.84-.63.84-.63v-5.1A.42.42,0,0,0,367.213,252.209Z" transform="translate(52.044 912.4)" fill="#8bb3ea"/>
    <path id="Path_532" data-name="Path 532" d="M326.628,319.234h4.141v-1.259h-4.141Z" transform="translate(88.068 852.155)" fill="#eef5f6"/>
    <path id="Path_533" data-name="Path 533" d="M370.954,319.234h1.259v-1.259h-1.259Z" transform="translate(47.464 852.155)" fill="#deecf1"/>
    <path id="Path_534" data-name="Path 534" d="M141.63,252.209h-1.259a.42.42,0,0,1,.42.42v11.463a.42.42,0,0,1-.42.42h1.259a.42.42,0,0,0,.42-.42v-5.1l-.84-.63.84-.63v-5.1A.42.42,0,0,0,141.63,252.209Z" transform="translate(258.688 912.4)" fill="#8bb3ea"/>
    <path id="Path_535" data-name="Path 535" d="M101.046,317.975v1.259h4.141l-.42-1.259Z" transform="translate(294.711 852.155)" fill="#eef5f6"/>
    <path id="Path_536" data-name="Path 536" d="M145.371,317.975v1.259h1.259v-1.259Z" transform="translate(254.107 852.155)" fill="#deecf1"/>
    <path id="Path_537" data-name="Path 537" d="M272.808,252.209h-1.7a.84.84,0,0,1,.84.84v15.123l1.7-.84V253.049A.84.84,0,0,0,272.808,252.209Z" transform="translate(138.931 912.4)" fill="#9f6e50"/>
    <path id="Path_538" data-name="Path 538" d="M203.636,252.209h-2.973l-.63.84-.63-.84h-2.973a.84.84,0,0,0-.84.84v1.846H199.4l.63-.168.63.168h3.812v-1.846A.84.84,0,0,0,203.636,252.209Z" transform="translate(208.103 912.4)" fill="#a4ccff"/>
    <path id="Path_539" data-name="Path 539" d="M272.808,252.209h-1.7a.84.84,0,0,1,.84.84v1.846h1.7v-1.846A.84.84,0,0,0,272.808,252.209Z" transform="translate(138.931 912.4)" fill="#8bb3ea"/>
    <path id="Path_540" data-name="Path 540" d="M241,252.209h1.259v2.686H241Z" transform="translate(166.507 912.4)" fill="#eef5f6"/>
    <path id="Path_541" data-name="Path 541" d="M38.032,432.333H2.1a2.1,2.1,0,0,0-2.1,2.1v.856a.42.42,0,0,0,.42.42H39.712a.42.42,0,0,0,.42-.42v-.856A2.1,2.1,0,0,0,38.032,432.333Z" transform="translate(387.273 747.398)" fill="#aee4a4"/>
    <path id="Path_542" data-name="Path 542" d="M444.061,432.333H441.5a2.1,2.1,0,0,1,2.1,2.1v.856a.42.42,0,0,1-.42.42h2.561a.42.42,0,0,0,.42-.42v-.856A2.1,2.1,0,0,0,444.061,432.333Z" transform="translate(-17.16 747.398)" fill="#8dd5a7"/>
  </g>
</svg>
