<svg xmlns="http://www.w3.org/2000/svg" width="47.133" height="47.844" viewBox="0 0 47.133 47.844">
  <g id="Group_687" data-name="Group 687" transform="translate(-1085 -1135.609)">
    <path id="Path_424" data-name="Path 424" d="M258.518,18.927H252.74v4.456h5.778a1.36,1.36,0,0,0,1.359-1.359V20.286A1.36,1.36,0,0,0,258.518,18.927Z" transform="translate(855.522 1118.451)" fill="#ed4343"/>
    <path id="Path_425" data-name="Path 425" d="M255.321,18.927h-2.582v4.456h4.681A3.923,3.923,0,0,1,255.321,18.927Z" transform="translate(855.523 1118.451)" fill="#c93f3f"/>
    <path id="Path_426" data-name="Path 426" d="M64.734,163.882a1.14,1.14,0,0,1-1.138,1.142H21.916a1.14,1.14,0,0,1-1.138-1.142V144.534a1.14,1.14,0,0,1,1.138-1.142H63.6a1.14,1.14,0,0,1,1.138,1.142Z" transform="translate(1065.808 1005.617)" fill="#c4bebb"/>
    <path id="Path_427" data-name="Path 427" d="M23.7,163.882V144.534a1.14,1.14,0,0,1,1.138-1.142H21.916a1.14,1.14,0,0,0-1.138,1.142v19.348a1.14,1.14,0,0,0,1.138,1.142h2.926A1.14,1.14,0,0,1,23.7,163.882Z" transform="translate(1065.808 1005.617)" fill="#ada6a3"/>
    <rect id="Rectangle_66" data-name="Rectangle 66" width="43.956" height="15.534" transform="translate(1086.586 1155.106)" fill="#d69569"/>
    <rect id="Rectangle_67" data-name="Rectangle 67" width="2.889" height="15.534" transform="translate(1086.586 1155.106)" fill="#c68254"/>
    <path id="Path_428" data-name="Path 428" d="M245.838,14.111a.711.711,0,0,1-.711-.711V.711a.711.711,0,1,1,1.423,0V13.4A.711.711,0,0,1,245.838,14.111Z" transform="translate(862.423 1135.609)" fill="#c4bebb"/>
    <rect id="Rectangle_68" data-name="Rectangle 68" width="43.956" height="2.568" transform="translate(1086.586 1153.087)" fill="#7f5030"/>
    <rect id="Rectangle_69" data-name="Rectangle 69" width="2.889" height="2.568" transform="translate(1086.586 1153.087)" fill="#704528"/>
    <g id="Group_486" data-name="Group 486" transform="translate(1100.521 1156.509)">
      <rect id="Rectangle_70" data-name="Rectangle 70" width="2.694" height="14.131" transform="translate(0)" fill="#b2794f"/>
      <rect id="Rectangle_71" data-name="Rectangle 71" width="2.694" height="14.131" transform="translate(12.825)" fill="#b2794f"/>
    </g>
    <g id="Group_487" data-name="Group 487" transform="translate(1089.475 1158.896)">
      <path id="Path_429" data-name="Path 429" d="M370.645,310.343a.711.711,0,0,1-.711-.711V307.22a.711.711,0,1,1,1.423,0v2.411A.711.711,0,0,1,370.645,310.343Z" transform="translate(-340.196 -301.154)" fill="#e8b592"/>
      <path id="Path_430" data-name="Path 430" d="M406.675,310.343a.711.711,0,0,1-.711-.711V307.22a.711.711,0,1,1,1.423,0v2.411A.711.711,0,0,1,406.675,310.343Z" transform="translate(-372.859 -301.154)" fill="#e8b592"/>
      <path id="Path_431" data-name="Path 431" d="M442.705,310.343a.711.711,0,0,1-.711-.711V307.22a.711.711,0,0,1,1.423,0v2.411A.711.711,0,0,1,442.705,310.343Z" transform="translate(-405.522 -301.154)" fill="#e8b592"/>
      <path id="Path_432" data-name="Path 432" d="M370.645,253.037a.711.711,0,0,1-.711-.711v-2.411a.711.711,0,1,1,1.423,0v2.411A.711.711,0,0,1,370.645,253.037Z" transform="translate(-340.196 -249.203)" fill="#e8b592"/>
      <path id="Path_433" data-name="Path 433" d="M406.675,253.037a.711.711,0,0,1-.711-.711v-2.411a.711.711,0,1,1,1.423,0v2.411A.711.711,0,0,1,406.675,253.037Z" transform="translate(-372.859 -249.203)" fill="#e8b592"/>
      <path id="Path_434" data-name="Path 434" d="M227.823,310.343a.711.711,0,0,1-.711-.711V307.22a.711.711,0,0,1,1.423,0v2.411A.711.711,0,0,1,227.823,310.343Z" transform="translate(-210.72 -301.154)" fill="#e8b592"/>
      <path id="Path_435" data-name="Path 435" d="M263.853,310.343a.711.711,0,0,1-.711-.711V307.22a.711.711,0,0,1,1.423,0v2.411A.711.711,0,0,1,263.853,310.343Z" transform="translate(-243.383 -301.154)" fill="#e8b592"/>
      <path id="Path_436" data-name="Path 436" d="M227.823,253.037a.711.711,0,0,1-.711-.711v-2.411a.711.711,0,1,1,1.423,0v2.411A.711.711,0,0,1,227.823,253.037Z" transform="translate(-210.72 -249.203)" fill="#e8b592"/>
      <path id="Path_437" data-name="Path 437" d="M263.853,253.037a.711.711,0,0,1-.711-.711v-2.411a.711.711,0,1,1,1.423,0v2.411A.711.711,0,0,1,263.853,253.037Z" transform="translate(-243.383 -249.203)" fill="#e8b592"/>
      <path id="Path_438" data-name="Path 438" d="M442.705,253.037a.711.711,0,0,1-.711-.711v-2.411a.711.711,0,1,1,1.423,0v2.411A.711.711,0,0,1,442.705,253.037Z" transform="translate(-405.522 -249.203)" fill="#e8b592"/>
      <path id="Path_439" data-name="Path 439" d="M52.407,310.343a.711.711,0,0,1-.711-.711V307.22a.711.711,0,0,1,1.423,0v2.411A.711.711,0,0,1,52.407,310.343Z" transform="translate(-51.696 -301.154)" fill="#e8b592"/>
      <path id="Path_440" data-name="Path 440" d="M88.437,310.343a.711.711,0,0,1-.711-.711V307.22a.711.711,0,0,1,1.423,0v2.411A.711.711,0,0,1,88.437,310.343Z" transform="translate(-84.359 -301.154)" fill="#e8b592"/>
      <path id="Path_441" data-name="Path 441" d="M124.467,310.343a.711.711,0,0,1-.711-.711V307.22a.711.711,0,0,1,1.423,0v2.411A.711.711,0,0,1,124.467,310.343Z" transform="translate(-117.022 -301.154)" fill="#e8b592"/>
      <path id="Path_442" data-name="Path 442" d="M52.407,253.037a.711.711,0,0,1-.711-.711v-2.411a.711.711,0,1,1,1.423,0v2.411A.711.711,0,0,1,52.407,253.037Z" transform="translate(-51.696 -249.203)" fill="#e8b592"/>
      <path id="Path_443" data-name="Path 443" d="M88.437,253.037a.711.711,0,0,1-.711-.711v-2.411a.711.711,0,1,1,1.423,0v2.411A.711.711,0,0,1,88.437,253.037Z" transform="translate(-84.359 -249.203)" fill="#e8b592"/>
      <path id="Path_444" data-name="Path 444" d="M124.467,253.037a.711.711,0,0,1-.711-.711v-2.411a.711.711,0,1,1,1.423,0v2.411A.711.711,0,0,1,124.467,253.037Z" transform="translate(-117.022 -249.203)" fill="#e8b592"/>
    </g>
    <path id="Path_445" data-name="Path 445" d="M182.918,131.476l-7.726-5.7a.285.285,0,0,0-.338,0l-7.726,5.7a.285.285,0,0,0,.169.513h15.453a.285.285,0,0,0,.169-.513Z" transform="translate(933.239 1021.638)" fill="#d69467"/>
    <path id="Path_446" data-name="Path 446" d="M171.253,131.477l5.832-4.3-1.894-1.4a.285.285,0,0,0-.338,0l-7.726,5.7a.285.285,0,0,0,.169.513h4.126A.285.285,0,0,1,171.253,131.477Z" transform="translate(933.239 1021.637)" fill="#c68254"/>
    <path id="Path_447" data-name="Path 447" d="M174.863,189.3a1.138,1.138,0,0,1-1.138,1.138H158.1a1.138,1.138,0,0,1-1.138-1.138v-1.122a1.138,1.138,0,0,1,1.138-1.138h15.623a1.138,1.138,0,0,1,1.138,1.138V189.3Z" transform="translate(942.348 966.051)" fill="#a36f43"/>
    <path id="Path_448" data-name="Path 448" d="M173.725,196.978H158.1a1.137,1.137,0,0,1-1.1-.85,1.134,1.134,0,0,0-.038.288v1.122a1.138,1.138,0,0,0,1.138,1.138h15.623a1.138,1.138,0,0,0,1.138-1.138v-1.122a1.138,1.138,0,0,0-.038-.288A1.137,1.137,0,0,1,173.725,196.978Z" transform="translate(942.348 957.809)" fill="#96623b"/>
    <path id="Path_449" data-name="Path 449" d="M167.963,384.412V375.5a1.359,1.359,0,0,0-1.359-1.359H149.838a1.359,1.359,0,0,0-1.36,1.359v8.912Z" transform="translate(950.041 796.43)" fill="#f4dac9"/>
    <path id="Path_450" data-name="Path 450" d="M153.161,374.141h-3.323a1.359,1.359,0,0,0-1.36,1.359v8.912H151.8V375.5A1.359,1.359,0,0,1,153.161,374.141Z" transform="translate(950.041 796.43)" fill="#f2cbb1"/>
    <g id="Group_488" data-name="Group 488" transform="translate(1085 1170.571)">
      <path id="Path_451" data-name="Path 451" d="M356.574,374.141H342.451a1.359,1.359,0,0,1,1.359,1.359v8.912h14.123V375.5A1.359,1.359,0,0,0,356.574,374.141Z" transform="translate(-310.806 -374.141)" fill="#e8b592"/>
      <path id="Path_452" data-name="Path 452" d="M5.165,374.141H18.722a1.36,1.36,0,0,0-1.359,1.359v8.912H3.806V375.5A1.36,1.36,0,0,1,5.165,374.141Z" transform="translate(-3.806 -374.141)" fill="#e8b592"/>
    </g>
    <path id="Path_453" data-name="Path 453" d="M8.477,374.141H5.165A1.36,1.36,0,0,0,3.806,375.5v8.912H7.118V375.5A1.36,1.36,0,0,1,8.477,374.141Z" transform="translate(1081.194 796.43)" fill="#dba37d"/>
    <path id="Path_454" data-name="Path 454" d="M223.823,414.453v-5.815a1.359,1.359,0,0,0-1.359-1.359h-3.927a1.359,1.359,0,0,0-1.359,1.359v5.815Z" transform="translate(887.762 766.39)" fill="#9b6743"/>
    <path id="Path_455" data-name="Path 455" d="M221.86,407.278h-3.323a1.359,1.359,0,0,0-1.359,1.359v5.815H220.5v-5.815A1.359,1.359,0,0,1,221.86,407.278Z" transform="translate(887.762 766.39)" fill="#895a3a"/>
    <g id="Group_489" data-name="Group 489" transform="translate(1087.613 1174.115)">
      <path id="Path_456" data-name="Path 456" d="M32.484,415.9a.711.711,0,0,1-.711-.711v-2.411a.711.711,0,0,1,1.423,0v2.411A.711.711,0,0,1,32.484,415.9Z" transform="translate(-31.773 -412.062)" fill="#f7ddcb"/>
      <path id="Path_457" data-name="Path 457" d="M68.514,415.9a.711.711,0,0,1-.711-.711v-2.411a.711.711,0,0,1,1.423,0v2.411A.711.711,0,0,1,68.514,415.9Z" transform="translate(-64.436 -412.062)" fill="#f7ddcb"/>
      <path id="Path_458" data-name="Path 458" d="M104.544,415.9a.711.711,0,0,1-.711-.711v-2.411a.711.711,0,0,1,1.423,0v2.411A.711.711,0,0,1,104.544,415.9Z" transform="translate(-97.099 -412.062)" fill="#f7ddcb"/>
      <path id="Path_459" data-name="Path 459" d="M390.247,415.9a.711.711,0,0,1-.711-.711v-2.411a.711.711,0,0,1,1.423,0v2.411A.711.711,0,0,1,390.247,415.9Z" transform="translate(-356.105 -412.062)" fill="#f7ddcb"/>
      <path id="Path_460" data-name="Path 460" d="M426.276,415.9a.711.711,0,0,1-.711-.711v-2.411a.711.711,0,1,1,1.423,0v2.411A.711.711,0,0,1,426.276,415.9Z" transform="translate(-388.767 -412.062)" fill="#f7ddcb"/>
      <path id="Path_461" data-name="Path 461" d="M462.306,415.9a.711.711,0,0,1-.711-.711v-2.411a.711.711,0,0,1,1.423,0v2.411A.711.711,0,0,1,462.306,415.9Z" transform="translate(-421.43 -412.062)" fill="#f7ddcb"/>
    </g>
    <path id="Path_462" data-name="Path 462" d="M3.806,483.044v1.568a1.138,1.138,0,0,0,1.138,1.138H49.8a1.138,1.138,0,0,0,1.138-1.138v-1.568Z" transform="translate(1081.194 697.704)" fill="#7f5030"/>
    <path id="Path_463" data-name="Path 463" d="M7.131,484.612v-1.568H3.806v1.568a1.138,1.138,0,0,0,1.138,1.138H8.269A1.138,1.138,0,0,1,7.131,484.612Z" transform="translate(1081.194 697.704)" fill="#704528"/>
  </g>
</svg>
