<svg xmlns="http://www.w3.org/2000/svg" width="46.047" height="48.657" viewBox="0 0 46.047 48.657">
  <g id="Group_683" data-name="Group 683" transform="translate(-503.444 -1134.517)">
    <path id="Path_391" data-name="Path 391" d="M332.147,342.62c-3.6.683-5.367-4.028-8.171-2.311a2.237,2.237,0,0,1-2.2.149h-.161l2,5.936a1.463,1.463,0,0,0,.89.915l1.912.691a1.638,1.638,0,0,1,.914.821l1.833,3.551a4.128,4.128,0,0,1,1.047.243.628.628,0,0,0,.583-.082,4.86,4.86,0,0,1,6.587.926Z" transform="translate(211.086 826.892)" fill="#ab6b51"/>
    <path id="Path_392" data-name="Path 392" d="M330.025,347.995a4.51,4.51,0,0,0-2.529-2.271l-.034-.012a2.687,2.687,0,0,1-1.636-1.68l-1.128-3.4a2.612,2.612,0,0,0-.722.312,2.237,2.237,0,0,1-2.2.149h-.161l2,5.936a1.463,1.463,0,0,0,.89.915l1.912.691a1.638,1.638,0,0,1,.914.821l1.833,3.551a4.127,4.127,0,0,1,1.047.243.628.628,0,0,0,.583-.082,4.845,4.845,0,0,1,1.427-.69Z" transform="translate(211.087 826.254)" fill="#965a44"/>
    <path id="Path_393" data-name="Path 393" d="M327.02,281.779l-2.146-4.388a1.638,1.638,0,0,0-.914-.821l-2.411-.873a1.639,1.639,0,0,1-.884-.761l-1.142-2.109a.6.6,0,0,0-1.074.022l-2.619,4.961.583,1.755a2.208,2.208,0,0,0,2.326-.076c2.832-1.735,4.609,3.091,8.281,2.289Z" transform="translate(216.323 887.903)" fill="#965a44"/>
    <path id="Path_394" data-name="Path 394" d="M319.519,293.74l-1.7-5.121-1.99,3.769.583,1.755a2.208,2.208,0,0,0,2.326-.076A2.576,2.576,0,0,1,319.519,293.74Z" transform="translate(216.325 873.326)" fill="#7c4b37"/>
    <path id="Path_395" data-name="Path 395" d="M34.684,56.777a3.218,3.218,0,0,1,3.164-2.032A3.631,3.631,0,0,1,39.2,55a4.62,4.62,0,0,0,.059-.8,2.755,2.755,0,0,0-2.754-2.7h-.021a.461.461,0,0,1-.43-.284,4.169,4.169,0,0,0-7.68,0,.461.461,0,0,1-.43.284h-.021a2.755,2.755,0,0,0-2.754,2.7,2.8,2.8,0,0,0,2.816,2.808H34.4A.4.4,0,0,0,34.684,56.777Z" transform="translate(479.361 1090.467)" fill="#8bcaff"/>
    <path id="Path_396" data-name="Path 396" d="M29.5,54.206a2.755,2.755,0,0,1,2.754-2.7h.021a.461.461,0,0,0,.43-.284,4.186,4.186,0,0,1,1.672-1.937,4.168,4.168,0,0,0-6.008,1.937.461.461,0,0,1-.43.284h-.021a2.755,2.755,0,0,0-2.754,2.7,2.8,2.8,0,0,0,2.816,2.808H32.32A2.8,2.8,0,0,1,29.5,54.206Z" transform="translate(479.363 1090.468)" fill="#60b8fe"/>
    <path id="Path_397" data-name="Path 397" d="M96.23,117.791h6.421l1.789-4.445a.869.869,0,0,1,.163-.257,3.82,3.82,0,0,0-.926-.114h-.018a.4.4,0,0,1-.376-.248,3.645,3.645,0,0,0-6.714,0,.4.4,0,0,1-.376.248h-.018a2.408,2.408,0,0,0-2.408,2.362A2.452,2.452,0,0,0,96.23,117.791Z" transform="translate(417.283 1034.517)" fill="#b1dbfc"/>
    <path id="Path_398" data-name="Path 398" d="M97.571,115.336a2.408,2.408,0,0,1,2.408-2.362H100a.4.4,0,0,0,.376-.248,3.658,3.658,0,0,1,1.455-1.687,3.64,3.64,0,0,0-5.259,1.687.4.4,0,0,1-.376.248h-.018a2.408,2.408,0,0,0-2.408,2.362,2.452,2.452,0,0,0,2.462,2.455h3.8A2.452,2.452,0,0,1,97.571,115.336Z" transform="translate(417.282 1034.517)" fill="#8bcaff"/>
    <path id="Path_399" data-name="Path 399" d="M48.8,254.831a1.639,1.639,0,0,0-.914-.821l-1.912-.691a1.462,1.462,0,0,1-.89-.915l-4.164-12.539c-4.356,2-6.187-3.836-9.26-1.954-1.655,1.013-2.8-.225-3.508-1.628l-2.313,5.746a2.606,2.606,0,0,1-1.617,1.507l-.872.281a2.606,2.606,0,0,0-1.541,1.335L13.8,261.525a.666.666,0,0,0,.6.959H32.59a.39.39,0,0,1-.065-.306,2.461,2.461,0,0,1,2.4-1.962,2.4,2.4,0,0,1,1.082.264.4.4,0,0,0,.436-.041,2.819,2.819,0,0,1,2.776-.45.412.412,0,0,0,.388-.049,3.3,3.3,0,0,1,3.39-.277h.177a3.527,3.527,0,0,1,3.721-.322.584.584,0,0,0,.632-.063,4.137,4.137,0,0,1,2.6-.916c.139,0,.276.007.412.021Z" transform="translate(489.712 920.689)" fill="#bc7c63"/>
    <path id="Path_400" data-name="Path 400" d="M31.66,237.91c-1.655,1.013-2.8-.225-3.508-1.628l-2.313,5.746a2.606,2.606,0,0,1-1.617,1.507l-.872.281a2.606,2.606,0,0,0-1.541,1.335L13.8,261.525a.666.666,0,0,0,.6.959h5.722a.666.666,0,0,1-.6-.959l8.008-16.373a2.605,2.605,0,0,1,1.541-1.335l.872-.281a2.606,2.606,0,0,0,1.617-1.507l1.791-4.45A2.258,2.258,0,0,0,31.66,237.91Z" transform="translate(489.712 920.689)" fill="#ab6b51"/>
    <g id="Group_485" data-name="Group 485" transform="translate(529.948 1134.517)">
      <path id="Path_401" data-name="Path 401" d="M365.126,2.834a.723.723,0,0,1-.723-.723V.723a.723.723,0,0,1,1.447,0V2.11A.723.723,0,0,1,365.126,2.834Z" transform="translate(-357.581)" fill="#ffd301"/>
      <path id="Path_402" data-name="Path 402" d="M365.126,131.8a.723.723,0,0,1-.723-.723v-1.387a.723.723,0,0,1,1.447,0v1.387A.723.723,0,0,1,365.126,131.8Z" transform="translate(-357.581 -116.714)" fill="#ffd301"/>
      <path id="Path_403" data-name="Path 403" d="M314.838,23.239l-.981-.981a.723.723,0,0,1,1.023-1.023l.981.981a.723.723,0,0,1-1.023,1.023Z" transform="translate(-311.647 -19.026)" fill="#ffd301"/>
      <path id="Path_404" data-name="Path 404" d="M406.034,114.436l-.981-.981a.723.723,0,1,1,1.023-1.023l.981.981a.723.723,0,1,1-1.023,1.023Z" transform="translate(-394.177 -101.556)" fill="#ffd301"/>
      <path id="Path_405" data-name="Path 405" d="M294.732,73.229h-1.387a.723.723,0,1,1,0-1.447h1.387a.723.723,0,0,1,0,1.447Z" transform="translate(-292.622 -64.96)" fill="#ffd301"/>
      <path id="Path_406" data-name="Path 406" d="M423.7,73.229h-1.387a.723.723,0,1,1,0-1.447H423.7a.723.723,0,1,1,0,1.447Z" transform="translate(-409.336 -64.96)" fill="#ffd301"/>
      <path id="Path_407" data-name="Path 407" d="M313.857,114.436a.723.723,0,0,1,0-1.023l.981-.981a.723.723,0,0,1,1.023,1.023l-.981.981A.723.723,0,0,1,313.857,114.436Z" transform="translate(-311.648 -101.556)" fill="#ffd301"/>
      <path id="Path_408" data-name="Path 408" d="M405.053,23.239a.723.723,0,0,1,0-1.023l.981-.981a.723.723,0,1,1,1.023,1.023l-.981.981A.723.723,0,0,1,405.053,23.239Z" transform="translate(-394.177 -19.026)" fill="#ffd301"/>
      <circle id="Ellipse_11" data-name="Ellipse 11" cx="2.932" cy="2.932" r="2.932" transform="translate(4.613 4.613)" fill="#ffd301"/>
    </g>
    <path id="Path_409" data-name="Path 409" d="M343.922,51.475a2.931,2.931,0,0,1,1.553-2.588,2.932,2.932,0,1,0,0,5.175,2.931,2.931,0,0,1-1.553-2.588Z" transform="translate(193.396 1090.587)" fill="#ffc20c"/>
    <path id="Path_410" data-name="Path 410" d="M175.087,139.665l-.7-2.109a.875.875,0,0,0-.831-.6.874.874,0,0,1-.752-.429l-.848-1.433a.875.875,0,0,0-.753-.429h-1.67a.875.875,0,0,0-.811.548l-3.71,9.216c.708,1.438,1.863,2.748,3.551,1.714,3.086-1.89,4.92,4.009,9.316,1.929Z" transform="translate(352.809 1012.648)" fill="#ab6b51"/>
    <path id="Path_411" data-name="Path 411" d="M170.172,145.8l3.551-8.822a.87.87,0,0,0-.166-.016.874.874,0,0,1-.752-.429l-.848-1.433a.875.875,0,0,0-.753-.429h-1.67a.875.875,0,0,0-.811.548l-3.71,9.216c.708,1.438,1.863,2.748,3.551,1.714a2.266,2.266,0,0,1,1.608-.349Z" transform="translate(352.808 1012.648)" fill="#965a44"/>
    <path id="Path_412" data-name="Path 412" d="M192.1,460.5v-4.684a.723.723,0,0,0-1.447,0V460.5Z" transform="translate(329.606 722.672)" fill="#965a44"/>
    <path id="Path_413" data-name="Path 413" d="M149.392,460.505v-4.684a.723.723,0,1,0-1.447,0v4.684Z" transform="translate(368.254 722.668)" fill="#965a44"/>
    <path id="Path_414" data-name="Path 414" d="M254.357,163.851h-.018a.4.4,0,0,1-.376-.248,3.645,3.645,0,0,0-6.714,0,.4.4,0,0,1-.376.248h-.018a2.408,2.408,0,0,0-2.408,2.362,2.452,2.452,0,0,0,2.462,2.455H254.3a2.452,2.452,0,0,0,2.462-2.455A2.408,2.408,0,0,0,254.357,163.851Z" transform="translate(280.923 988.475)" fill="#dfebfa"/>
    <path id="Path_415" data-name="Path 415" d="M248.249,166.213a2.408,2.408,0,0,1,2.408-2.362h.018a.4.4,0,0,0,.376-.248,3.658,3.658,0,0,1,1.455-1.687,3.64,3.64,0,0,0-5.259,1.687.4.4,0,0,1-.376.248h-.018a2.408,2.408,0,0,0-2.408,2.362,2.452,2.452,0,0,0,2.462,2.455h3.8A2.452,2.452,0,0,1,248.249,166.213Z" transform="translate(280.924 988.475)" fill="#b1dbfc"/>
    <path id="Path_416" data-name="Path 416" d="M339.664,464.83a4.877,4.877,0,0,0-4.8-4.155,4.806,4.806,0,0,0-2.8.9.623.623,0,0,1-.583.083,4.122,4.122,0,0,0-4.06.658.579.579,0,0,1-.632.063,3.5,3.5,0,0,0-3.768.361,3.4,3.4,0,0,1,1.482,2.336.414.414,0,0,1-.4.48h14.957A.624.624,0,0,0,339.664,464.83Z" transform="translate(209.819 717.621)" fill="#00ba66"/>
    <path id="Path_417" data-name="Path 417" d="M328.194,471.62a4.914,4.914,0,0,1,2.246-3.42,4.109,4.109,0,0,0-3.021.9.579.579,0,0,1-.632.063,3.5,3.5,0,0,0-3.768.361,3.4,3.4,0,0,1,1.483,2.336.414.414,0,0,1-.4.48h4.708A.624.624,0,0,1,328.194,471.62Z" transform="translate(209.818 710.831)" fill="#01a755"/>
    <path id="Path_418" data-name="Path 418" d="M220.424,479.107a3.4,3.4,0,0,0-3.354-2.918,3.354,3.354,0,0,0-1.965.633.42.42,0,0,1-.4.05,2.876,2.876,0,0,0-2.833.459.41.41,0,0,1-.445.042,2.449,2.449,0,0,0-1.1-.269,2.512,2.512,0,0,0-2.448,2,.406.406,0,0,0,.4.485h11.739a.418.418,0,0,0,.408-.485Z" transform="translate(314.022 703.582)" fill="#43cb8e"/>
    <path id="Path_419" data-name="Path 419" d="M212.53,483.977a3.469,3.469,0,0,1,1.95-2.442,2.875,2.875,0,0,0-2.6.535.41.41,0,0,1-.445.042,2.449,2.449,0,0,0-1.1-.269,2.512,2.512,0,0,0-2.448,2,.406.406,0,0,0,.4.485h4.3a.545.545,0,0,1-.046-.353Z" transform="translate(314.022 698.844)" fill="#00ba66"/>
    <path id="Path_420" data-name="Path 420" d="M182.541,367.779a.351.351,0,0,1-.041-.328,2.4,2.4,0,0,0-.368-2.337.351.351,0,0,1-.045-.377,2.046,2.046,0,0,0,.223-.918,2.059,2.059,0,0,0-3.725-1.224,2.482,2.482,0,0,1-.2.553.425.425,0,0,0,.055.457,2.914,2.914,0,0,1,.447,2.833.425.425,0,0,0,.05.4,3.408,3.408,0,0,1-.616,4.609,2.81,2.81,0,0,0,4.224-3.666Z" transform="translate(340.768 807.148)" fill="#00ba66"/>
    <path id="Path_421" data-name="Path 421" d="M181.138,366.649a1.1,1.1,0,0,1-.085-.6,4.8,4.8,0,0,0-.38-2.6,1.074,1.074,0,0,1-.074-.634,4.375,4.375,0,0,0,.073-.77c0-.086,0-.171-.007-.256a2,2,0,0,0-.31-.042,2.056,2.056,0,0,0-1.771.846,2.482,2.482,0,0,1-.2.553.425.425,0,0,0,.055.457,2.914,2.914,0,0,1,.447,2.833.425.425,0,0,0,.05.4,3.408,3.408,0,0,1-.616,4.609,2.8,2.8,0,0,0,1.745.769,2.9,2.9,0,0,0,.293,0,5.331,5.331,0,0,0,1.243-3.407A5.265,5.265,0,0,0,181.138,366.649Z" transform="translate(340.768 807.149)" fill="#01a755"/>
    <path id="Path_422" data-name="Path 422" d="M125.966,345.665a.42.42,0,0,1-.05-.4,2.877,2.877,0,0,0-.454-2.833.42.42,0,0,1-.055-.457,2.45,2.45,0,0,0,.274-1.113,2.537,2.537,0,0,0-5.073-.015,2.45,2.45,0,0,0,.271,1.121.415.415,0,0,1-.046.455,2.877,2.877,0,0,0-.46,2.841.42.42,0,0,1-.051.4,3.361,3.361,0,0,0-.629,2.249,3.465,3.465,0,0,0,6.913-.274A3.359,3.359,0,0,0,125.966,345.665Z" transform="translate(393.831 828.319)" fill="#43cb8e"/>
    <path id="Path_423" data-name="Path 423" d="M122.361,347.914a3.362,3.362,0,0,1,.629-2.249.42.42,0,0,0,.051-.4,2.877,2.877,0,0,1,.46-2.841.415.415,0,0,0,.046-.455,2.45,2.45,0,0,1-.271-1.121,2.488,2.488,0,0,1,1.2-2.121,2.536,2.536,0,0,0-3.866,2.121,2.449,2.449,0,0,0,.271,1.121.415.415,0,0,1-.046.455,2.877,2.877,0,0,0-.46,2.841.42.42,0,0,1-.051.4,3.361,3.361,0,0,0-.629,2.249,3.449,3.449,0,0,0,3.221,3.128,3.508,3.508,0,0,0,1.567-.257,3.428,3.428,0,0,1-2.119-2.871Z" transform="translate(393.832 828.319)" fill="#00ba66"/>
  </g>
</svg>
