<svg xmlns="http://www.w3.org/2000/svg" width="52.639" height="40.507" viewBox="0 0 52.639 40.507">
  <g id="Group_681" data-name="Group 681" transform="translate(-270.148 -1142.666)">
    <path id="Path_464" data-name="Path 464" d="M117.956,74.688h6.355V99.542h-6.355Z" transform="translate(164.319 1069.591)" fill="#bf6724"/>
    <path id="Path_465" data-name="Path 465" d="M148.861,74.688h3.177V99.542h-3.177Z" transform="translate(136.591 1069.591)" fill="#a35418"/>
    <circle id="Ellipse_12" data-name="Ellipse 12" cx="10.591" cy="10.591" r="10.591" transform="translate(297.844 1147.139)" fill="#64cc56"/>
    <path id="Path_466" data-name="Path 466" d="M358.546,102.5a10.68,10.68,0,0,0-1.589.119,10.593,10.593,0,0,1,0,20.945,10.592,10.592,0,1,0,1.589-21.064Z" transform="translate(-50.11 1044.636)" fill="#50a645"/>
    <path id="Path_467" data-name="Path 467" d="M146.344,111.818v13.971H117.96V111.818L132.152,90.14Z" transform="translate(164.315 1055.728)" fill="#fdeedf"/>
    <g id="Group_492" data-name="Group 492" transform="translate(307.482 1162.692)">
      <g id="Group_491" data-name="Group 491">
        <g id="Group_490" data-name="Group 490">
          <path id="Path_468" data-name="Path 468" d="M363.139,253.782v18.824h3.177V258.635Z" transform="translate(-363.139 -253.782)" fill="#f0d6c0"/>
        </g>
      </g>
    </g>
    <path id="Path_469" data-name="Path 469" d="M159.163,320.9h7.626v11.923h-7.626Z" transform="translate(127.349 848.692)" fill="#bf6724"/>
    <path id="Path_470" data-name="Path 470" d="M208.612,320.9h2.542v11.923h-2.542Z" transform="translate(82.983 848.692)" fill="#a35418"/>
    <path id="Path_471" data-name="Path 471" d="M269.392,320.9h8.049v6.143h-8.049Z" transform="translate(28.452 848.692)" fill="#b2ebf2"/>
    <path id="Path_472" data-name="Path 472" d="M316.781,320.9h3.177v6.143h-3.177Z" transform="translate(-14.065 848.692)" fill="#80deea"/>
    <path id="Path_473" data-name="Path 473" d="M101.069,103.363,82.64,75.4a1.589,1.589,0,0,0-2.653,0L61.558,103.363a1.589,1.589,0,1,0,2.653,1.749l17.1-25.948,17.1,25.948a1.589,1.589,0,1,0,2.653-1.749Z" transform="translate(215.154 1069.591)" fill="#ff7043"/>
    <circle id="Ellipse_13" data-name="Ellipse 13" cx="3.707" cy="3.707" r="3.707" transform="translate(292.76 1157.164)" fill="#b2ebf2"/>
    <g id="Group_493" data-name="Group 493" transform="translate(286.391 1156.393)">
      <path id="Path_474" data-name="Path 474" d="M166.387,313.4h-7.625a.771.771,0,0,0-.771.771V326.1h1.542V314.942h6.083V326.1h1.542V314.171A.771.771,0,0,0,166.387,313.4Z" transform="translate(-157.99 -300.971)" fill="#8c4815"/>
      <path id="Path_475" data-name="Path 475" d="M277.039,313.4h-8.049a.771.771,0,0,0-.771.771v6.143a.771.771,0,0,0,.771.771h8.049a.771.771,0,0,0,.771-.771v-6.143A.771.771,0,0,0,277.039,313.4Zm-.771,6.143H269.76v-4.6h6.507Z" transform="translate(-256.885 -300.972)" fill="#8c4815"/>
      <path id="Path_476" data-name="Path 476" d="M227.725,196.99a4.478,4.478,0,1,0-4.478,4.478A4.483,4.483,0,0,0,227.725,196.99Zm-1.632-.722h-2.075v-2.11A2.946,2.946,0,0,1,226.093,196.268Zm-3.617-2.11v2.11H220.4A2.946,2.946,0,0,1,222.476,194.158Zm-2.047,3.652h2.047v2.013a2.947,2.947,0,0,1-2.047-2.013Zm3.59,2.013V197.81h2.047A2.947,2.947,0,0,1,224.018,199.823Z" transform="translate(-212.52 -192.512)" fill="#8c4815"/>
    </g>
    <path id="Path_477" data-name="Path 477" d="M114.079,62.181h-8.074a.411.411,0,0,1-.411-.411V59.411a.411.411,0,0,1,.411-.411h8.074a.411.411,0,0,1,.411.411V61.77A.411.411,0,0,1,114.079,62.181Z" transform="translate(175.41 1083.666)" fill="#ff7043"/>
    <path id="Path_478" data-name="Path 478" d="M161.223,59v3.181h2.766a.411.411,0,0,0,.411-.411V59.411a.411.411,0,0,0-.411-.411Z" transform="translate(125.5 1083.666)" fill="#ff5722"/>
    <path id="Path_479" data-name="Path 479" d="M50.943,423.387H1.7a1.7,1.7,0,0,1-1.7-1.7v0a1.7,1.7,0,0,1,1.7-1.7H50.943a1.7,1.7,0,0,1,1.7,1.7v0A1.7,1.7,0,0,1,50.943,423.387Z" transform="translate(270.148 759.786)" fill="#a35418"/>
    <path id="Path_480" data-name="Path 480" d="M467.789,419.995h-3.177a1.7,1.7,0,0,1,0,3.393h3.177a1.7,1.7,0,0,0,0-3.393Z" transform="translate(-146.697 759.786)" fill="#8c4815"/>
    <path id="Path_464-2" data-name="Path 464" d="M117.956,74.688h6.355V99.542h-6.355Z" transform="translate(164.319 1069.591)" fill="#bf6724"/>
    <path id="Path_465-2" data-name="Path 465" d="M148.861,74.688h3.177V99.542h-3.177Z" transform="translate(136.591 1069.591)" fill="#a35418"/>
    <circle id="Ellipse_12-2" data-name="Ellipse 12" cx="10.591" cy="10.591" r="10.591" transform="translate(297.844 1147.139)" fill="#64cc56"/>
    <path id="Path_466-2" data-name="Path 466" d="M358.546,102.5a10.68,10.68,0,0,0-1.589.119,10.593,10.593,0,0,1,0,20.945,10.592,10.592,0,1,0,1.589-21.064Z" transform="translate(-50.11 1044.636)" fill="#50a645"/>
    <path id="Path_467-2" data-name="Path 467" d="M146.344,111.818v13.971H117.96V111.818L132.152,90.14Z" transform="translate(164.315 1055.728)" fill="#fdeedf"/>
    <g id="Group_492-2" data-name="Group 492" transform="translate(307.482 1162.692)">
      <g id="Group_491-2" data-name="Group 491">
        <g id="Group_490-2" data-name="Group 490">
          <path id="Path_468-2" data-name="Path 468" d="M363.139,253.782v18.824h3.177V258.635Z" transform="translate(-363.139 -253.782)" fill="#f0d6c0"/>
        </g>
      </g>
    </g>
    <path id="Path_469-2" data-name="Path 469" d="M159.163,320.9h7.626v11.923h-7.626Z" transform="translate(127.349 848.692)" fill="#bf6724"/>
    <path id="Path_470-2" data-name="Path 470" d="M208.612,320.9h2.542v11.923h-2.542Z" transform="translate(82.983 848.692)" fill="#a35418"/>
    <path id="Path_471-2" data-name="Path 471" d="M269.392,320.9h8.049v6.143h-8.049Z" transform="translate(28.452 848.692)" fill="#b2ebf2"/>
    <path id="Path_472-2" data-name="Path 472" d="M316.781,320.9h3.177v6.143h-3.177Z" transform="translate(-14.065 848.692)" fill="#80deea"/>
    <path id="Path_473-2" data-name="Path 473" d="M101.069,103.363,82.64,75.4a1.589,1.589,0,0,0-2.653,0L61.558,103.363a1.589,1.589,0,1,0,2.653,1.749l17.1-25.948,17.1,25.948a1.589,1.589,0,1,0,2.653-1.749Z" transform="translate(215.154 1069.591)" fill="#ff7043"/>
    <circle id="Ellipse_13-2" data-name="Ellipse 13" cx="3.707" cy="3.707" r="3.707" transform="translate(292.76 1157.164)" fill="#b2ebf2"/>
    <g id="Group_493-2" data-name="Group 493" transform="translate(286.391 1156.393)">
      <path id="Path_474-2" data-name="Path 474" d="M166.387,313.4h-7.625a.771.771,0,0,0-.771.771V326.1h1.542V314.942h6.083V326.1h1.542V314.171A.771.771,0,0,0,166.387,313.4Z" transform="translate(-157.99 -300.971)" fill="#8c4815"/>
      <path id="Path_475-2" data-name="Path 475" d="M277.039,313.4h-8.049a.771.771,0,0,0-.771.771v6.143a.771.771,0,0,0,.771.771h8.049a.771.771,0,0,0,.771-.771v-6.143A.771.771,0,0,0,277.039,313.4Zm-.771,6.143H269.76v-4.6h6.507Z" transform="translate(-256.885 -300.972)" fill="#8c4815"/>
      <path id="Path_476-2" data-name="Path 476" d="M227.725,196.99a4.478,4.478,0,1,0-4.478,4.478A4.483,4.483,0,0,0,227.725,196.99Zm-1.632-.722h-2.075v-2.11A2.946,2.946,0,0,1,226.093,196.268Zm-3.617-2.11v2.11H220.4A2.946,2.946,0,0,1,222.476,194.158Zm-2.047,3.652h2.047v2.013a2.947,2.947,0,0,1-2.047-2.013Zm3.59,2.013V197.81h2.047A2.947,2.947,0,0,1,224.018,199.823Z" transform="translate(-212.52 -192.512)" fill="#8c4815"/>
    </g>
    <path id="Path_477-2" data-name="Path 477" d="M114.079,62.181h-8.074a.411.411,0,0,1-.411-.411V59.411a.411.411,0,0,1,.411-.411h8.074a.411.411,0,0,1,.411.411V61.77A.411.411,0,0,1,114.079,62.181Z" transform="translate(175.41 1083.666)" fill="#ff7043"/>
    <path id="Path_478-2" data-name="Path 478" d="M161.223,59v3.181h2.766a.411.411,0,0,0,.411-.411V59.411a.411.411,0,0,0-.411-.411Z" transform="translate(125.5 1083.666)" fill="#ff5722"/>
    <path id="Path_479-2" data-name="Path 479" d="M50.943,423.387H1.7a1.7,1.7,0,0,1-1.7-1.7v0a1.7,1.7,0,0,1,1.7-1.7H50.943a1.7,1.7,0,0,1,1.7,1.7v0A1.7,1.7,0,0,1,50.943,423.387Z" transform="translate(270.148 759.786)" fill="#a35418"/>
    <path id="Path_480-2" data-name="Path 480" d="M467.789,419.995h-3.177a1.7,1.7,0,0,1,0,3.393h3.177a1.7,1.7,0,0,0,0-3.393Z" transform="translate(-146.697 759.786)" fill="#8c4815"/>
  </g>
</svg>
