<svg id="Group_571" data-name="Group 571" xmlns="http://www.w3.org/2000/svg" width="21.252" height="21.252" viewBox="0 0 21.252 21.252">
  <path id="Path_565" data-name="Path 565" d="M9.6,2.125A2.126,2.126,0,0,1,11.725,0h8.5a2.126,2.126,0,0,1,2.125,2.125V7.084H9.6Z" transform="translate(-5.35)" fill="#7600ff"/>
  <path id="Path_566" data-name="Path 566" d="M2.125,19.2A2.126,2.126,0,0,0,0,21.325v5.667a2.126,2.126,0,0,0,2.125,2.125h.708V23.45H18.418v5.667h.708a2.126,2.126,0,0,0,2.125-2.125V21.325A2.126,2.126,0,0,0,19.127,19.2Z" transform="translate(0 -10.699)" fill="#7600ff"/>
  <path id="Path_567" data-name="Path 567" d="M9.6,32H22.351v7.084H9.6Z" transform="translate(-5.35 -17.832)" fill="#7600ff"/>
  <path id="Path_568" data-name="Path 568" d="M0,0H21.252V21.252H0Z" fill="none"/>
</svg>
