<svg xmlns="http://www.w3.org/2000/svg" width="15.493" height="14.566" viewBox="0 0 15.493 14.566">
  <path id="Icon_awesome-snapchat-ghost" data-name="Icon awesome-snapchat-ghost" d="M15.458,12.5c-.158.368-.824.638-2.038.827a5.676,5.676,0,0,0-.2.725.35.35,0,0,1-.367.268h-.009c-.284,0-.581-.131-1.176-.131a2.4,2.4,0,0,0-1.7.623,3.408,3.408,0,0,1-2.24.829,3.475,3.475,0,0,1-2.205-.829,2.392,2.392,0,0,0-1.7-.623,11.429,11.429,0,0,0-1.176.143.359.359,0,0,1-.376-.274,5.605,5.605,0,0,0-.2-.73c-.626-.1-2.037-.343-2.073-.973a.322.322,0,0,1,.269-.335,4.555,4.555,0,0,0,3.093-2.6L3.37,9.4a.688.688,0,0,0,.075-.567c-.153-.36-.813-.489-1.091-.6-.718-.283-.817-.609-.775-.832a.779.779,0,0,1,1-.468,1.732,1.732,0,0,0,.713.191.618.618,0,0,0,.3-.066A9.035,9.035,0,0,1,3.763,3.55,4.123,4.123,0,0,1,7.59,1.081l.306,0a4.094,4.094,0,0,1,3.835,2.471,9.031,9.031,0,0,1,.172,3.51.593.593,0,0,0,.26.065,1.808,1.808,0,0,0,.668-.189.819.819,0,0,1,.62,0h0a.629.629,0,0,1,.472.541c.006.295-.258.55-.783.757-.064.025-.142.05-.225.076-.3.094-.744.236-.866.523a.687.687,0,0,0,.074.567l.007.016a4.554,4.554,0,0,0,3.094,2.6A.33.33,0,0,1,15.458,12.5Z" transform="translate(0 -1.078)"/>
</svg>
