<svg xmlns="http://www.w3.org/2000/svg" width="162" height="162" viewBox="0 0 162 162">
  <path id="QR_code_for_mobile_English_Wikipedia" d="M32,174.448V154.9H71.1V194H32V174.448Zm33.517,0V160.483H37.586v27.931H65.517V174.448Zm-22.345,0v-8.379H59.931v16.759H43.172v-8.379Zm39.1,16.759v-2.793H76.69V177.241h5.586V160.483h5.586V154.9H76.69V149.31H54.345v-5.586h5.586v-5.586H48.759V149.31H43.172v-5.586H32v-5.586H43.172V126.966H37.586v5.586H32V121.379H43.172v5.586h5.586v5.586h5.586v-5.586h5.586v5.586H71.1v-5.586H65.517v-5.586H48.759v-5.586H65.517v-5.586H48.759v-5.586H43.172v5.586H32V93.448h5.586v5.586H71.1V93.448H65.517V87.862H54.345v5.586H48.759V87.862H37.586V76.69H48.759V87.862h5.586V82.276H65.517V76.69H71.1v5.586H65.517v5.586H71.1v5.586H76.69V82.276h5.586V76.69H76.69V59.931H87.862v5.586h5.586V71.1H87.862V76.69h5.586v33.517H82.276v-5.586H76.69v5.586H71.1v5.586H65.517v5.586H71.1v5.586H76.69v5.586H87.862v-5.586H82.276v-5.586H76.69v-5.586H87.862v11.172h5.586V115.793h5.586v11.172h5.586V110.207h5.586v-5.586h5.586v5.586h-5.586v5.586h5.586v5.586h16.759v-5.586h-5.586v-5.586h-5.586V99.034h-5.586V93.448h5.586V87.862h5.586V82.276h-5.586V76.69h-5.586V87.862h-5.586V82.276h-5.586v5.586H99.034V82.276h5.586V76.69H99.034V59.931H93.448V54.345h5.586v5.586h5.586V37.586h5.586V48.759h11.172V43.172h-5.586V32h11.172v5.586h-5.586v5.586h11.172V37.586h5.586V32H149.31V48.759H138.138V43.172h-5.586V54.345h5.586V71.1h5.586V65.517h5.586V93.448h11.172V87.862H154.9V76.69h11.172V93.448h11.172V87.862h-5.586V76.69h5.586V87.862h5.586V82.276H194V93.448h-5.586V87.862h-5.586v5.586h-5.586v16.759h5.586v5.586h-5.586v5.586H166.069v5.586h-5.586v5.586H149.31v-5.586h-5.586v-5.586h-5.586v11.172h5.586v5.586h16.759v5.586h11.172v-5.586h-5.586v-5.586h5.586v-5.586h5.586v5.586h5.586v5.586h5.586V126.966h-5.586v-5.586H194v16.759h-5.586V149.31H194v11.172h-5.586v16.759H194v5.586H177.241V194H160.483v-5.586h11.172v-5.586H160.483V171.655H154.9v11.172H149.31v5.586H154.9V194H143.724V177.241h-5.586v11.172h-5.586v-5.586h-5.586V160.483h5.586v16.759h5.586V160.483h5.586V149.31h-5.586v-5.586h-5.586v-5.586h5.586v-5.586h-5.586v-5.586h-5.586V149.31h5.586V154.9H121.379v11.172h-5.586v11.172h5.586v5.586h-5.586v5.586h11.172V194H115.793v-5.586h-5.586v-5.586h-5.586V194H82.276v-2.793Zm16.759-8.379v-5.586h5.586V160.483H93.448v5.586h5.586v5.586H87.862v5.586H82.276v5.586h5.586v5.586H99.034v-5.586Zm78.207-5.586v-5.586h5.586V160.483h5.586V154.9h-5.586V138.138h-5.586V154.9h5.586v5.586h-5.586v5.586h-5.586v16.759h5.586v-5.586Zm-27.931-2.793v-2.793h-5.586v5.586h5.586v-2.793Zm-33.517-11.172v-2.793h-5.586v5.586h5.586v-2.793Zm50.276-5.586V149.31H149.31v16.759h16.759V157.69Zm-11.172,0V154.9h5.586v5.586H154.9V157.69Zm-44.69-5.586V149.31h11.172v-5.586H110.207v-5.586h-5.586v5.586h5.586v5.586H99.034v-5.586H93.448v5.586H87.862v-5.586H82.276v-5.586H76.69v-5.586H71.1v5.586H65.517v5.586H71.1v-5.586H76.69v5.586h5.586v5.586h5.586V154.9h22.345V152.1ZM93.448,135.345v-2.793H87.862v5.586h5.586v-2.793Zm27.931-2.793v-5.586H110.207v5.586h5.586v5.586h5.586v-5.586Zm33.517-8.379v-2.793H149.31v5.586H154.9v-2.793Zm11.172-5.586v-2.793h5.586V99.034h-5.586v5.586h-5.586v5.586H154.9v-5.586H143.724V99.034h-5.586V93.448h5.586V76.69h-5.586V71.1h-5.586V65.517h-5.586V71.1h-5.586V54.345h5.586v5.586h5.586V54.345h-5.586V48.759h-5.586v5.586h-5.586V71.1h5.586V76.69h5.586V71.1h5.586V87.862h-5.586v5.586h-5.586v5.586h5.586v11.172h5.586v-5.586h11.172v5.586h5.586v5.586h11.172v5.586h5.586v-2.793ZM160.483,113v-2.793h5.586v5.586h-5.586V113ZM71.1,107.414v-2.793H76.69V99.034H71.1v5.586H65.517v5.586H71.1v-2.793ZM87.862,96.241V93.448H82.276v5.586h5.586V96.241Zm0-27.931V65.517H82.276V71.1h5.586V68.31Zm22.345-2.793V59.931h-5.586V71.1h5.586V65.517Zm33.517-25.138V37.586h-5.586v5.586h5.586V40.379Zm44.69,150.828v-2.793H194V194h-5.586v-2.793Zm0-81v-5.586h-5.586V99.034h5.586v5.586H194v11.172h-5.586v-5.586ZM32,51.552V32H71.1V71.1H32V51.552Zm33.517,0V37.586H37.586V65.517H65.517V51.552Zm-22.345,0V43.172H59.931V59.931H43.172V51.552Zm111.724,0V32H194V71.1H154.9V51.552Zm33.517,0V37.586H160.483V65.517h27.931V51.552Zm-22.345,0V43.172h16.759V59.931H166.069V51.552Zm-89.379,0V48.759h5.586v5.586H76.69V51.552Zm11.172-5.586V43.172H82.276V32h5.586v5.586h5.586V32h5.586v5.586H93.448V48.759H87.862V45.966Z" transform="translate(-32 -32)"/>
</svg>
