<svg xmlns="http://www.w3.org/2000/svg" width="20.879" height="10.25" viewBox="0 0 20.879 10.25">
  <g id="sofa-bed" transform="translate(-4.5 -18.5)">
    <path id="Path_595" data-name="Path 595" d="M9.29,21.541v2H24.767v-2a.725.725,0,0,1,.725-.725h.7v-1.7a.611.611,0,0,0-.607-.615H8.477a.611.611,0,0,0-.607.615v1.7h.7a.721.721,0,0,1,.721.725Z" transform="translate(-2.091)"/>
    <path id="Path_596" data-name="Path 596" d="M7.79,43.03H9.384v.938H7.79Z" transform="translate(-2.041 -15.218)"/>
    <path id="Path_597" data-name="Path 597" d="M52.01,43.03H53.6v.938H52.01Z" transform="translate(-29.475 -15.218)"/>
    <path id="Path_598" data-name="Path 598" d="M25.037,25.6H23.4a.347.347,0,0,0-.345.345v2h.357a.726.726,0,0,1,.687.512.657.657,0,0,1,.034.213v1.215a.778.778,0,0,1-.076.326,0,0,0,0,0,0,0,.724.724,0,0,1-.642.395H6.466a.724.724,0,0,1-.642-.395,0,0,0,0,0,0,0,.778.778,0,0,1-.076-.326V28.667a.657.657,0,0,1,.034-.213.726.726,0,0,1,.687-.512h.353v-2a.342.342,0,0,0-.342-.345H4.842a.342.342,0,0,0-.342.345v5.546a.342.342,0,0,0,.342.345h20.2a.342.342,0,0,0,.342-.345V25.945a.342.342,0,0,0-.342-.345Z" transform="translate(0 -4.405)"/>
    <path id="Path_599" data-name="Path 599" d="M25.331,32.77H9.122a.346.346,0,0,0-.342.345V34.33a.346.346,0,0,0,.342.345H26.068a.346.346,0,0,0,.342-.345V33.115a.346.346,0,0,0-.342-.345Z" transform="translate(-2.655 -8.853)"/>
  </g>
</svg>
