<svg xmlns="http://www.w3.org/2000/svg" width="14.234" height="14.566" viewBox="0 0 14.234 14.566">
  <g id="x" transform="translate(-466.7 -452.8)">
    <g id="Group_348" data-name="Group 348" transform="translate(466.7 452.8)">
      <path id="Path_123" data-name="Path 123" d="M481.294,465.88l-4.769-6.929-.539-.784-3.412-4.957-.283-.411H468.1l1.022,1.486,4.536,6.591.539.782,3.645,5.3.283.41h4.192Zm-2.672.537-3.786-5.5-.539-.784-4.393-6.382h1.889l3.554,5.163.539.784,4.627,6.723h-1.891Z" transform="translate(-468.083 -452.8)"/>
      <path id="Path_124" data-name="Path 124" d="M472.913,1064.8l.539.784-.639.743-4.905,5.707H466.7l5.575-6.489Z" transform="translate(-466.7 -1057.467)"/>
      <path id="Path_125" data-name="Path 125" d="M1079.365,452.9l-5.286,6.15-.64.743-.539-.782.64-.744,3.581-4.168,1.035-1.2Z" transform="translate(-1065.637 -452.899)"/>
    </g>
  </g>
</svg>
