<svg xmlns="http://www.w3.org/2000/svg" width="43.707" height="43.707" viewBox="0 0 43.707 43.707">
  <g id="Group_685" data-name="Group 685" transform="translate(-751.729 -1138.021)">
    <g id="summer-holidays" transform="translate(751.729 1138.021)">
      <g id="Group_411" data-name="Group 411" transform="translate(2.46 0.607)">
        <path id="Path_302" data-name="Path 302" d="M181.353,195.283a18.132,18.132,0,0,1,.258,8.395l.187.321c1.915-1.977,4-5.487.17-9.344l-.1-.035-.511.166v.5Z" transform="translate(-168.332 -178.613)" fill="#00f4a8"/>
        <path id="Path_303" data-name="Path 303" d="M192.914,172.9a18.793,18.793,0,0,1,7.123,6.42l.355.269c.064-3.169-.973-7.813-7.628-7.729l-.141.112-.09.441Z" transform="translate(-178.557 -157.796)" fill="#00f4a8"/>
        <path id="Path_304" data-name="Path 304" d="M108.878,7.107l-.1.507s4.715,6.547,4.051,12.259l.138.163.557-.315.093-.16c3.438-7.745-1.081-11.069-4.735-12.454Z" transform="translate(-101.948 -7.107)" fill="#00f4a8"/>
        <path id="Path_305" data-name="Path 305" d="M28.817,88.129s4.874.785,7.893,3.5l.539.484.912-.283.151-.163c-2.652-5.47-6.668-5.065-9.5-3.833Z" transform="translate(-28.817 -80.235)" fill="#00f4a8"/>
        <path id="Path_306" data-name="Path 306" d="M32.757,166.265c-2.555.41-3.593,4.566-3.593,4.566l.149.234a14.544,14.544,0,0,1,7.146-3.877l.1-.172-.049-.92A15.115,15.115,0,0,0,32.757,166.265Z" transform="translate(-29.134 -152.478)" fill="#00f4a8"/>
      </g>
      <path id="Path_307" data-name="Path 307" d="M5.012,96.3a.471.471,0,0,1-.293-.175,13.474,13.474,0,0,0-2.033,1.116.479.479,0,0,0,.276.878,15.979,15.979,0,0,1,9.274,2.506h.2l.92-.286A16.12,16.12,0,0,0,5.012,96.3Z" transform="translate(-2.259 -87.923)" fill="#00e49d"/>
      <path id="Path_308" data-name="Path 308" d="M86.39,13.336A20.483,20.483,0,0,0,82.083.607,16.683,16.683,0,0,0,80.188.019a.572.572,0,0,0-.55.952,18.658,18.658,0,0,1,5.408,11.184l.106.187,1.015,1.195.249-.141Z" transform="translate(-72.692 0)" fill="#00e49d"/>
      <path id="Path_309" data-name="Path 309" d="M192.275,136.058s-3.094-3.531-6.546-3.333a8.693,8.693,0,0,0-5.114,2.3l.872.589.235.033a17.543,17.543,0,0,1,10.553.913v-.5Z" transform="translate(-165.198 -121.387)" fill="#00f4a8"/>
      <path id="Path_310" data-name="Path 310" d="M172.27,120.556c5.155-4.259,9.259-1.172,11.432,1.382l.127.048a.529.529,0,0,0,.624-.8c-1.979-2.727-6.883-7.694-13.211-1.406l.125.166Z" transform="translate(-156.625 -106.768)" fill="#00e49d"/>
      <path id="Path_311" data-name="Path 311" d="M190.24,179.266l-.2.965.055.174a15.707,15.707,0,0,1,7.023,7.41.479.479,0,0,0,.907-.155,14.065,14.065,0,0,0,.089-1.511A16.789,16.789,0,0,0,190.24,179.266Z" transform="translate(-173.82 -163.963)" fill="#00e49d"/>
      <path id="Path_312" data-name="Path 312" d="M22.123,157.433c.812-2.429,2.744-5.647,7.208-4.751l-.061-1.146-.106-.165c-5.417-1.3-7.26,3.295-7.847,5.733a.432.432,0,0,0,.721.411l.086-.081Z" transform="translate(-19.485 -138.24)" fill="#00e49d"/>
      <path id="Path_313" data-name="Path 313" d="M169.559,205.9a14.232,14.232,0,0,0-.537-9.018l-.84.274-.219.181a14.215,14.215,0,0,1,.043,9.077.432.432,0,0,0,.694.455c.265-.228.556-.5.852-.8A.446.446,0,0,1,169.559,205.9Z" transform="translate(-153.625 -180.08)" fill="#00e49d"/>
      <path id="Path_314" data-name="Path 314" d="M317.266,374.257a3.345,3.345,0,0,1-4.069-.525.922.922,0,0,0-1.31,0,3.344,3.344,0,0,1-4.745,0,.922.922,0,0,0-1.31,0,3.344,3.344,0,0,1-4.745,0,.922.922,0,0,0-1.24-.064v.705l3.418,6.112h14.181l.511-1.188v-4.65A.456.456,0,0,0,317.266,374.257Z" transform="translate(-274.25 -341.578)" fill="#60b9fe"/>
      <path id="Path_315" data-name="Path 315" d="M270.281,375.974a3.334,3.334,0,0,1-2.373.987c-.1,0-.208-.005-.31-.015v.174l4.242,5.315.4.291h2.972a24.583,24.583,0,0,0-4.865-6.817Q270.315,375.94,270.281,375.974Z" transform="translate(-244.755 -343.82)" fill="#1ca8ff"/>
      <path id="Path_316" data-name="Path 316" d="M364.24,440.086a3.334,3.334,0,0,1-2.373-.987.922.922,0,0,0-1.31,0,3.344,3.344,0,0,1-4.745,0,.922.922,0,0,0-1.31,0,3.342,3.342,0,0,1-1.443.855l1.416,4.774.638.344h10.343a1.171,1.171,0,0,0,1.171-1.171v-4.817A3.335,3.335,0,0,1,364.24,440.086Z" transform="translate(-322.92 -401.365)" fill="#8bcaff"/>
      <path id="Path_317" data-name="Path 317" d="M318.391,446.324a24.5,24.5,0,0,0-1.716-4.46,3.344,3.344,0,0,1-3.447-.81.923.923,0,0,0-.106-.091v.128l2.355,5.588.371.348h2.737Z" transform="translate(-286.392 -403.32)" fill="#60b9fe"/>
      <path id="Path_318" data-name="Path 318" d="M402.816,218.664a4.233,4.233,0,0,0,0,7.724,4.066,4.066,0,0,0,0-7.724Z" transform="translate(-366.143 -199.997)" fill="#ffc365"/>
      <path id="Path_319" data-name="Path 319" d="M370.031,220.343a4.066,4.066,0,0,1,2.594-3.79,4.066,4.066,0,1,0,0,7.58A4.067,4.067,0,0,1,370.031,220.343Z" transform="translate(-335.751 -197.814)" fill="#ffa90f"/>
      <g id="Group_412" data-name="Group 412" transform="translate(41.214 21.869)">
        <path id="Path_320" data-name="Path 320" d="M484.531,257.5h-1.077a.66.66,0,1,1,0-1.319h1.077a.66.66,0,0,1,0,1.319Z" transform="translate(-482.794 -256.178)" fill="#ffc365"/>
      </g>
      <g id="Group_413" data-name="Group 413" transform="translate(27.194 21.869)">
        <path id="Path_321" data-name="Path 321" d="M320.3,257.5h-1.077a.66.66,0,0,1,0-1.319H320.3a.66.66,0,0,1,0,1.319Z" transform="translate(-318.564 -256.178)" fill="#ffc365"/>
      </g>
      <g id="Group_414" data-name="Group 414" transform="translate(39.318 16.531)">
        <path id="Path_322" data-name="Path 322" d="M460.784,195.54a.659.659,0,0,1,0-.933l.762-.762a.66.66,0,0,1,.933.933l-.762.762A.66.66,0,0,1,460.784,195.54Z" transform="translate(-460.591 -193.653)" fill="#ffc365"/>
      </g>
      <g id="Group_415" data-name="Group 415" transform="translate(29.405 26.445)">
        <path id="Path_323" data-name="Path 323" d="M344.656,311.669a.659.659,0,0,1,0-.933l.762-.762a.66.66,0,1,1,.933.933l-.762.762A.66.66,0,0,1,344.656,311.669Z" transform="translate(-344.463 -309.782)" fill="#ffc365"/>
      </g>
      <g id="Group_416" data-name="Group 416" transform="translate(34.742 14.32)">
        <path id="Path_324" data-name="Path 324" d="M407.648,170.149a.66.66,0,0,1-.66-.66v-1.077a.66.66,0,0,1,1.319,0v1.077A.66.66,0,0,1,407.648,170.149Z" transform="translate(-406.989 -167.753)" fill="#ffc365"/>
      </g>
      <g id="Group_417" data-name="Group 417" transform="translate(34.742 28.34)">
        <path id="Path_325" data-name="Path 325" d="M407.648,334.38a.66.66,0,0,1-.66-.66v-1.077a.66.66,0,0,1,1.319,0v1.077A.66.66,0,0,1,407.648,334.38Z" transform="translate(-406.989 -331.984)" fill="#ffc365"/>
      </g>
      <g id="Group_418" data-name="Group 418" transform="translate(29.405 16.531)">
        <path id="Path_326" data-name="Path 326" d="M345.418,195.54l-.762-.762a.66.66,0,0,1,.933-.933l.762.762a.66.66,0,0,1-.933.933Z" transform="translate(-344.463 -193.653)" fill="#ffc365"/>
      </g>
      <g id="Group_419" data-name="Group 419" transform="translate(39.318 26.445)">
        <path id="Path_327" data-name="Path 327" d="M461.546,311.668l-.762-.762a.66.66,0,1,1,.933-.933l.762.762a.66.66,0,1,1-.933.933Z" transform="translate(-460.591 -309.781)" fill="#ffc365"/>
      </g>
      <path id="Path_328" data-name="Path 328" d="M39.731,324l-1.536.867-2.5-.186-.374-.553a21.89,21.89,0,0,0-2.637.51v14.442a1.058,1.058,0,0,0,.636.967H59.35A21.983,21.983,0,0,0,39.731,324Z" transform="translate(-29.894 -296.34)" fill="#ffdda8"/>
      <g id="Group_420" data-name="Group 420" transform="translate(0 28.252)">
        <path id="Path_329" data-name="Path 329" d="M2.966,345.443V330.956a21.8,21.8,0,0,0-2.185.665A1.185,1.185,0,0,0,0,332.735v4.435l.533.447L.591,343.1,0,344.045v1.182a1.184,1.184,0,0,0,1.184,1.184H3.6A1.059,1.059,0,0,1,2.966,345.443Z" transform="translate(0 -330.956)" fill="#ffc365"/>
      </g>
      <path id="Path_330" data-name="Path 330" d="M12.727,184.061l-.392.08-.381,1.485-5.6,10.8-5.9,8.262L0,205.906v3.784c9.077-8.586,12.487-19.526,13.6-24.3v-.28Z" transform="translate(0 -168.348)" fill="#dd8858"/>
      <g id="Group_421" data-name="Group 421" transform="translate(0 15.716)">
        <path id="Path_331" data-name="Path 331" d="M12.711,184.1l-1.314.267-.275.239C10.2,187.825,7.483,194.924,0,202.849v3.091c8.593-9.521,11.658-17.827,12.711-21.841Z" transform="translate(0 -184.099)" fill="#cb6c35"/>
      </g>
      <path id="Path_332" data-name="Path 332" d="M167.749,154.481a2.178,2.178,0,0,0,0,3.912,2.133,2.133,0,0,0,0-3.912Z" transform="translate(-152.314 -141.293)" fill="#938493"/>
      <path id="Path_333" data-name="Path 333" d="M149.623,155.211a2.133,2.133,0,0,1,1.128-2.611,2.129,2.129,0,0,0-1.96.088l-.14.153-.756,2.382v.153a2.131,2.131,0,0,0,2.856,1.1A2.128,2.128,0,0,1,149.623,155.211Z" transform="translate(-135.27 -139.392)" fill="#7b6c79"/>
      <path id="Path_334" data-name="Path 334" d="M132.05,142.418a2.238,2.238,0,0,0,0,3.954,2.132,2.132,0,0,0,0-3.954Z" transform="translate(-119.69 -130.26)" fill="#938493"/>
      <path id="Path_335" data-name="Path 335" d="M112.346,142.041a2.127,2.127,0,0,1,1.121-1.257,2.164,2.164,0,0,0-.228-.091,2.133,2.133,0,1,0,.227,3.956A2.133,2.133,0,0,1,112.346,142.041Z" transform="translate(-101.004 -128.581)" fill="#7b6c79"/>
    </g>
  </g>
</svg>
