<svg xmlns="http://www.w3.org/2000/svg" width="50.136" height="40.507" viewBox="0 0 50.136 40.507">
  <g id="Group_680" data-name="Group 680" transform="translate(-154.651 -1142.666)">
    <path id="Path_481" data-name="Path 481" d="M73.453,130.02H36.589l-3.361,17.088H76.814Z" transform="translate(124.677 1020.564)" fill="#60b8fe"/>
    <path id="Path_482" data-name="Path 482" d="M36.589,130.02l-3.361,17.088h4.557l3.361-17.088Z" transform="translate(124.677 1020.564)" fill="#23a8fe"/>
    <path id="Path_483" data-name="Path 483" d="M3.853,119.762a.338.338,0,0,1-.331-.4l3.167-16.1a.338.338,0,0,1,.331-.273H24.284a15.906,15.906,0,0,1,4.075-3.107H5.464a1.553,1.553,0,0,0-1.524,1.254L.029,121.016a1.554,1.554,0,0,0,1.524,1.853H45L47,119.762Z" transform="translate(154.651 1047.754)" fill="#6c7ed6"/>
    <path id="Path_484" data-name="Path 484" d="M3.551,121.016l.248-1.26a.337.337,0,0,1-.277-.4l3.167-16.1a.338.338,0,0,1,.331-.273H7.1l.364-1.853a1.553,1.553,0,0,1,1.524-1.254H5.464a1.553,1.553,0,0,0-1.524,1.254L.029,121.016a1.554,1.554,0,0,0,1.524,1.853H5.075a1.554,1.554,0,0,1-1.524-1.853Z" transform="translate(154.651 1047.754)" fill="#4f67d2"/>
    <path id="Path_485" data-name="Path 485" d="M97.859,207.543h0a4.5,4.5,0,0,1-3.186-1.321,4.5,4.5,0,0,1-6.375,0,4.514,4.514,0,0,1-3.03,1.318.777.777,0,1,1-.054-1.553,2.922,2.922,0,0,0,2.176-1.072,1.177,1.177,0,0,1,1.817,0,2.953,2.953,0,0,0,4.558,0,1.177,1.177,0,0,1,1.817,0,2.951,2.951,0,0,0,2.278,1.075.777.777,0,0,1,0,1.554Z" transform="translate(78.459 953.39)" fill="#0193fa"/>
    <path id="Path_486" data-name="Path 486" d="M88.3,161.478a4.515,4.515,0,0,1-3.03,1.318.777.777,0,0,1-.054-1.553,2.922,2.922,0,0,0,2.176-1.072,1.177,1.177,0,0,1,1.817,0,2.96,2.96,0,0,0,3.522.8.777.777,0,1,1,.654,1.409A4.514,4.514,0,0,1,88.3,161.478Z" transform="translate(78.458 993.752)" fill="#0193fa"/>
    <path id="Path_487" data-name="Path 487" d="M127.1,263.986a.777.777,0,0,1-.777-.777v-7.146a1.605,1.605,0,0,0-3.21,0v1.5a.777.777,0,1,1-1.553,0v-1.5a3.159,3.159,0,1,1,6.317,0v7.146A.777.777,0,0,1,127.1,263.986Z" transform="translate(44.992 909.712)" fill="#dfebfa"/>
    <path id="Path_488" data-name="Path 488" d="M452.786,183.267l2.142,11.3.309-.515a1.553,1.553,0,0,1,2.865.556l-2.15-11.345h-3.166Z" transform="translate(-253.797 972.531)" fill="#6c7ed6"/>
    <g id="Group_494" data-name="Group 494" transform="translate(180.476 1175.817)">
      <path id="Path_489" data-name="Path 489" d="M426.834,388.072a1.553,1.553,0,0,1-1.332.754h-1.553v4.681a1.553,1.553,0,0,0,3.107,0v-5.8Z" transform="translate(-408.26 -387.703)" fill="#bc7c63"/>
      <path id="Path_490" data-name="Path 490" d="M263.731,399.169v4.681a1.553,1.553,0,0,0,3.107,0v-4.681Z" transform="translate(-263.731 -398.046)" fill="#bc7c63"/>
      <path id="Path_491" data-name="Path 491" d="M426.834,388.072a1.553,1.553,0,0,1-1.332.754h-1.553v4.681a1.553,1.553,0,0,0,3.107,0v-5.8Z" transform="translate(-408.26 -387.703)" fill="#bc7c63"/>
    </g>
    <path id="Path_492" data-name="Path 492" d="M263.731,399.169v4.681a1.553,1.553,0,0,0,3.107,0v-4.681Z" transform="translate(-83.255 777.77)" fill="#ab6b51"/>
    <path id="Path_493" data-name="Path 493" d="M347.02,52.247q.786,0,1.553.075v-1.6a1.553,1.553,0,0,0-3.107,0v1.6Q346.234,52.248,347.02,52.247Z" transform="translate(-156.987 1093.5)" fill="#bc7c63"/>
    <path id="Path_494" data-name="Path 494" d="M347.538,50.716a1.792,1.792,0,0,1,.462-1.2,1.553,1.553,0,0,0-2.533,1.205v1.6q.767-.075,1.553-.075c.173,0,.346,0,.518.009Z" transform="translate(-156.987 1093.5)" fill="#ab6b51"/>
    <path id="Path_495" data-name="Path 495" d="M345.467,183.268h3.107v18.449h-3.107Z" transform="translate(-156.987 972.53)" fill="#bc7c63"/>
    <path id="Path_496" data-name="Path 496" d="M345.467,183.268h2.048v18.449h-2.048Z" transform="translate(-156.987 972.53)" fill="#ab6b51"/>
    <path id="Path_497" data-name="Path 497" d="M240.144,88.5a15.855,15.855,0,0,0-29.458,0,.35.35,0,0,0,.327.478h5.5c1.357-5.994,4.832-10.257,8.906-10.257s7.549,4.264,8.906,10.257h5.5A.35.35,0,0,0,240.144,88.5Z" transform="translate(-35.382 1067.023)" fill="#dfebfa"/>
    <path id="Path_498" data-name="Path 498" d="M223.751,79.245a5.076,5.076,0,0,1,.683-.419,15.859,15.859,0,0,0-13.747,9.956.35.35,0,0,0,.327.478h5.5C217.678,84.1,220.414,80.226,223.751,79.245Z" transform="translate(-35.382 1066.745)" fill="#b1dbfc"/>
    <path id="Path_499" data-name="Path 499" d="M278.862,78.724c1.615,0,2.992,4.264,3.53,10.257h5.422c-1.323-6.1-4.832-10.465-8.952-10.465s-7.629,4.362-8.952,10.465h5.422C275.87,82.988,277.248,78.724,278.862,78.724Z" transform="translate(-88.829 1067.023)" fill="#ff656f"/>
    <path id="Path_500" data-name="Path 500" d="M277.727,79.658c-3.62.717-6.617,4.819-7.817,10.353h2.474C273.29,84.918,275.278,81.014,277.727,79.658Z" transform="translate(-88.829 1065.994)" fill="#ff4756"/>
    <path id="Path_501" data-name="Path 501" d="M328.645,78.517c-1.633,0-3.024,4.362-3.548,10.465h7.1C331.669,82.879,330.278,78.517,328.645,78.517Z" transform="translate(-138.612 1067.023)" fill="#dfebfa"/>
    <path id="Path_502" data-name="Path 502" d="M265.979,295.153H248.662a1.553,1.553,0,0,1,0-3.107H265.1l4.6-7.66a1.553,1.553,0,0,1,2.664,1.6l-5.053,8.414A1.554,1.554,0,0,1,265.979,295.153Z" transform="translate(-68.261 881.994)" fill="#dfebfa"/>
    <path id="Path_503" data-name="Path 503" d="M254.794,371.109a1.553,1.553,0,0,1,1.553-1.553h-7.685a1.553,1.553,0,0,0,0,3.107h7.685A1.553,1.553,0,0,1,254.794,371.109Z" transform="translate(-68.261 804.484)" fill="#b1dbfc"/>
    <path id="Path_504" data-name="Path 504" d="M140.812,295.606a.777.777,0,0,0-.777-.777H136.7v1.553h3.331A.777.777,0,0,0,140.812,295.606Z" transform="translate(31.333 871.893)" fill="#b1dbfc"/>
    <path id="Path_505" data-name="Path 505" d="M140.035,326.733H136.7v1.553h3.331a.777.777,0,1,0,0-1.553Z" transform="translate(31.333 843.113)" fill="#b1dbfc"/>
    <path id="Path_506" data-name="Path 506" d="M76.073,252.9a3.162,3.162,0,0,0-3.159,3.159V257.8h1.553v-1.741a1.605,1.605,0,0,1,3.21,0v7.146a.777.777,0,1,0,1.553,0v-7.146A3.162,3.162,0,0,0,76.073,252.9Z" transform="translate(88.877 909.712)" fill="#dfebfa"/>
  </g>
</svg>
