<svg id="Group_573" data-name="Group 573" xmlns="http://www.w3.org/2000/svg" width="23.577" height="23.577" viewBox="0 0 23.577 23.577">
  <path id="Path_571" data-name="Path 571" d="M22.595,3a.922.922,0,0,1,.688.295.922.922,0,0,1,.295.688V22.648a1.007,1.007,0,0,1-.982.982H6.877a1.007,1.007,0,0,1-.982-.982V19.209H.982a.922.922,0,0,1-.688-.295A.922.922,0,0,1,0,18.227V8.4a.922.922,0,0,1,.295-.688.9.9,0,0,1,.688-.295H5.894V3.982a.922.922,0,0,1,.295-.688A.922.922,0,0,1,6.877,3ZM5.894,14.572l1.395,2.613h2.1l-2.338-3.8,2.3-3.733H7.329L6.051,12.008,6,12.087l-.039.088-.629-1.257L4.686,9.651H2.544L4.774,13.4,2.338,17.186H4.46ZM14,22.156V19.209H7.368v2.947Zm0-4.421V14.052h-2.21v3.684Zm0-5.158V8.894h-2.21v3.684Zm0-5.158V4.474H7.368V7.421Zm8.1,14.736V19.209H15.473v2.947Zm0-4.421V14.052H15.473v3.684Zm0-5.158V8.894H15.473v3.684Zm0-5.158V4.474H15.473V7.421Z" transform="translate(0 -1.526)" fill="#7600ff"/>
  <path id="Path_572" data-name="Path 572" d="M0,0H23.577V23.577H0Z" fill="none"/>
</svg>
