<svg xmlns="http://www.w3.org/2000/svg" width="49.038" height="46.416" viewBox="0 0 49.038 46.416">
  <g id="Group_686" data-name="Group 686" transform="translate(-966.279 -1138.313)">
    <path id="Path_255" data-name="Path 255" d="M28.693,323.975a.735.735,0,0,0-.735.735v15.227a.735.735,0,0,0,1.471,0V324.71A.735.735,0,0,0,28.693,323.975Z" transform="translate(940.998 844.056)" fill="#3d5a55"/>
    <path id="Path_256" data-name="Path 256" d="M5.413,254.4a3.045,3.045,0,0,1-1.575-2.667v-9.136a3.045,3.045,0,0,1,1.575-2.667c.436-.241,3.536.985,3.536,2.667v9.136C8.948,253.41,5.849,254.636,5.413,254.4Z" transform="translate(962.808 920.084)" fill="#b6ef68"/>
    <path id="Path_257" data-name="Path 257" d="M21.751,236.263a3.032,3.032,0,0,0-1.471.378,3.044,3.044,0,0,1,1.575,2.667v9.136a3.044,3.044,0,0,1-1.575,2.667,3.046,3.046,0,0,0,4.516-2.667v-9.136A3.045,3.045,0,0,0,21.751,236.263Z" transform="translate(947.941 923.367)" fill="#66d7aa"/>
    <path id="Path_258" data-name="Path 258" d="M266.245,112.983H247.973V98.841h18.272Z" transform="translate(742.056 1047.627)" fill="#ceddf4"/>
    <path id="Path_259" data-name="Path 259" d="M418.279,99.821V112l1.471.98,1.471-.98v-3.045l-.98-3.045.98-3.045V99.821l-1.471-.98Z" transform="translate(588.061 1047.627)" fill="#b4ccef"/>
    <path id="Path_260" data-name="Path 260" d="M270.813,308.872h-21.86l-.98-10.659.98-7.613,10.693-.98h11.167Z" transform="translate(742.056 875.12)" fill="#ceddf4"/>
    <path id="Path_261" data-name="Path 261" d="M465.973,299.856h2.941v18.272h-2.941Z" transform="translate(544.935 865.865)" fill="#b4ccef"/>
    <path id="Path_262" data-name="Path 262" d="M333,145.985l-1.961.98h-8.554a.686.686,0,0,1-.686-.686v-4.718a.686.686,0,0,1,.686-.686h8.554l1.961.98Z" transform="translate(675.297 1009.619)" fill="#edf3ff"/>
    <path id="Path_263" data-name="Path 263" d="M418.279,140.874h2.941v6.091h-2.941Z" transform="translate(588.061 1009.62)" fill="#ceddf4"/>
    <path id="Path_264" data-name="Path 264" d="M305.88,332.342v7.763a.686.686,0,0,1-.686.686h-6.157l-.735-.98-.735.98h-6.158a.686.686,0,0,1-.686-.686v-7.763a.686.686,0,0,1,.686-.686h6.158l.735.98.736-.98h6.157A.686.686,0,0,1,305.88,332.342Z" transform="translate(703.401 837.11)" fill="#edf3ff"/>
    <path id="Path_265" data-name="Path 265" d="M220.57,50.6l-1.085.98H195.176V45.485h21.368l1.961.98Z" transform="translate(789.796 1095.873)" fill="#f45"/>
    <path id="Path_266" data-name="Path 266" d="M420.8,45.485h-2.517l3.045,6.091h1.831a.686.686,0,0,0,.614-.993l-2.359-4.718A.686.686,0,0,0,420.8,45.485Z" transform="translate(588.062 1095.873)" fill="#e8057d"/>
    <path id="Path_267" data-name="Path 267" d="M271.356,241.373l-.98.98H248.953l-.98-3.045.98-3.045H267.33l1.961.98Z" transform="translate(742.056 923.367)" fill="#f45"/>
    <path id="Path_268" data-name="Path 268" d="M452.592,236.263h-2.517l3.045,6.091h1.831a.686.686,0,0,0,.614-.993l-2.359-4.718A.686.686,0,0,0,452.592,236.263Z" transform="translate(559.31 923.367)" fill="#e8057d"/>
    <path id="Path_269" data-name="Path 269" d="M84.723,88.12H67.431V53.641l9.136-8.156,8.156,8.156Z" transform="translate(905.306 1095.873)" fill="#6bd7e5"/>
    <path id="Path_270" data-name="Path 270" d="M139.681,35.249,137.23,37.7l8.215,8.215a1.47,1.47,0,0,1,.431,1.04V78.864h2.941V44.385Z" transform="translate(842.192 1105.128)" fill="#2abcc8"/>
    <g id="Group_383" data-name="Group 383" transform="translate(969.623 1138.313)">
      <g id="Group_382" data-name="Group 382">
        <path id="Path_271" data-name="Path 271" d="M56.8,26.967l-9.579-9.58-9.684,9.585a1.534,1.534,0,1,1-2.159-2.181L46.143,14.133a1.534,1.534,0,0,1,2.164.006L58.966,24.8a1.526,1.526,0,0,1,0,2.17,1.573,1.573,0,0,1-2.17,0Z" transform="translate(-34.919 -13.689)" fill="#e8057d"/>
      </g>
    </g>
    <path id="Path_272" data-name="Path 272" d="M124.262,346.88h-9.136V332.339a.686.686,0,0,1,.686-.686h7.763a.686.686,0,0,1,.686.686V346.88Z" transform="translate(862.179 837.113)" fill="#3d5a55"/>
    <path id="Path_273" data-name="Path 273" d="M124.263,205.156V208.3l-.98.735.98.735v3.146a.686.686,0,0,1-.686.686h-3.093l-.735-.98-.735.98h-3.2a.686.686,0,0,1-.686-.686v-3.146l.98-.735-.98-.735v-3.146a.686.686,0,0,1,.686-.686h3.2l.735.98.735-.98h3.093A.686.686,0,0,1,124.263,205.156Z" transform="translate(862.178 952.115)" fill="#edf3ff"/>
    <circle id="Ellipse_7" data-name="Ellipse 7" cx="3.045" cy="3.045" r="3.045" transform="translate(978.881 1147.449)" fill="#edf3ff"/>
    <path id="Path_274" data-name="Path 274" d="M124.262,208.3v1.471h-3.093a.686.686,0,0,0-.686.686v3.146h-1.471v-3.146a.686.686,0,0,0-.686-.686h-3.2V208.3h3.2a.686.686,0,0,0,.686-.686V204.47h1.471v3.146a.686.686,0,0,0,.686.686Z" transform="translate(862.179 952.115)" fill="#ceddf4"/>
    <path id="Path_275" data-name="Path 275" d="M140.539,403.466a.735.735,0,0,0-.735.735v1.323a.735.735,0,1,0,1.471,0V404.2A.735.735,0,0,0,140.539,403.466Z" transform="translate(839.865 772.178)" fill="#314c4b"/>
    <path id="Path_276" data-name="Path 276" d="M362.18,331.656h1.471v9.135H362.18Z" transform="translate(638.787 837.11)" fill="#ceddf4"/>
    <g id="Group_385" data-name="Group 385" transform="translate(966.279 1183.258)">
      <g id="Group_384" data-name="Group 384">
        <path id="Path_277" data-name="Path 277" d="M48.3,484.428H.735a.735.735,0,1,1,0-1.471H48.3a.735.735,0,1,1,0,1.471Z" transform="translate(0 -482.957)" fill="#edf3ff"/>
      </g>
    </g>
  </g>
</svg>
