<svg xmlns="http://www.w3.org/2000/svg" width="16.374" height="16.374" viewBox="0 0 16.374 16.374">
  <g id="Icon_feather-instagram" data-name="Icon feather-instagram" transform="translate(0.6 0.6)">
    <path id="Path_120" data-name="Path 120" d="M6.793,3H14.38a3.793,3.793,0,0,1,3.793,3.793V14.38a3.793,3.793,0,0,1-3.793,3.793H6.793A3.793,3.793,0,0,1,3,14.38V6.793A3.793,3.793,0,0,1,6.793,3Z" transform="translate(-3 -3)" stroke="#fafafa" stroke-linecap="round" stroke-linejoin="round" stroke-width="1.2"/>
    <path id="Path_121" data-name="Path 121" d="M18.1,14.525a3.035,3.035,0,1,1-2.557-2.557A3.035,3.035,0,0,1,18.1,14.525Z" transform="translate(-7.48 -7.416)" stroke="#fafafa" stroke-linecap="round" stroke-linejoin="round" stroke-width="1.2"/>
    <path id="Path_122" data-name="Path 122" d="M26.25,9.75h0" transform="translate(-14.49 -6.336)" stroke="#fafafa" stroke-linecap="round" stroke-linejoin="round" stroke-width="1.2"/>
  </g>
</svg>
