<svg xmlns="http://www.w3.org/2000/svg" width="10.093" height="12.623" viewBox="0 0 10.093 12.623">
  <g id="Icon_ionic-ios-notifications" data-name="Icon ionic-ios-notifications" transform="translate(-6.761 -3.93)">
    <path id="Path_549" data-name="Path 549" d="M16.125,30.008a1.487,1.487,0,0,0,1.518-1.672H14.6A1.488,1.488,0,0,0,16.125,30.008Z" transform="translate(-4.324 -13.455)"/>
    <path id="Path_550" data-name="Path 550" d="M16.726,13.279c-.486-.64-1.442-1.016-1.442-3.884,0-2.944-1.3-4.127-2.511-4.411-.114-.028-.2-.066-.2-.186V4.706a.77.77,0,1,0-1.54,0V4.8c0,.117-.082.158-.2.186C9.627,5.271,8.33,6.451,8.33,9.395c0,2.868-.956,3.24-1.442,3.884a.626.626,0,0,0,.5,1h8.837A.626.626,0,0,0,16.726,13.279Z" transform="translate(0 0)"/>
  </g>
</svg>
