<svg id="phone-call-2" xmlns="http://www.w3.org/2000/svg" width="35" height="35" viewBox="0 0 35 35">
  <g id="Circle_Grid" data-name="Circle Grid">
    <circle id="Ellipse_3" data-name="Ellipse 3" cx="17.5" cy="17.5" r="17.5" fill="#00e29c"/>
  </g>
  <g id="icon" transform="translate(6.259 6.241)">
    <path id="Path_126" data-name="Path 126" d="M32.479,35.769c2.392,2.392,4.736,3.362,5.58,2.518l1.159-1.159a2.045,2.045,0,0,1,2.892,0l2.6,2.6a2.045,2.045,0,0,1,0,2.892L42.686,44.65c-1.916,1.916-7.583-.642-13.015-6.073A28.105,28.105,0,0,1,24.025,30.9c-1.151-2.405-1.384-4.378-.426-5.336l2.028-2.028a2.045,2.045,0,0,1,2.892,0l2.6,2.6a2.045,2.045,0,0,1,0,2.892l-1.16,1.162c-.844.844.126,3.187,2.517,5.578Z" transform="translate(-23.002 -22.936)" fill="#fff"/>
  </g>
</svg>
